<svg xmlns="http://www.w3.org/2000/svg" viewBox="0 0 180.11 351.58"><defs><style>.cls-1{fill:#3e332f;}.cls-2{fill:#5a4d46;}.cls-3{fill:#d5ad95;}.cls-4{fill:#1a1813;}.cls-5{fill:#70605a;}.cls-6{fill:#534440;}.cls-7{fill:#4c403e;}.cls-8{fill:#966c53;}.cls-9{fill:#d4ab8e;}.cls-10{fill:#edcbad;}.cls-11{fill:#e5d1c1;}.cls-12{fill:#64584e;}.cls-13{fill:#5c4d46;}.cls-14{fill:#1a0b04;}.cls-15{fill:#6a5950;}.cls-16{fill:#eddac8;}.cls-17{fill:#9c7b6a;}.cls-18{fill:#363432;}.cls-19{fill:#493a32;}.cls-20{fill:#bd7344;}.cls-21{fill:#71635d;}.cls-22{fill:#38312b;}.cls-23{fill:#41403f;}.cls-24{fill:#33231b;}.cls-25{fill:#8f7d72;}.cls-26{fill:#482914;}.cls-27{fill:#e8c3a5;}.cls-28{fill:#e9c6a8;}.cls-29{fill:#60554d;}.cls-30{fill:#948173;}.cls-31{fill:#bc8e79;}.cls-32{fill:#493d39;}.cls-33{fill:#544541;}.cls-34{fill:#f9d5b7;}.cls-35{fill:#1e1009;}.cls-36{fill:#7b5c3f;}.cls-37{fill:#34241e;}.cls-38{fill:#8c796f;}.cls-39{fill:#fcd4b6;}.cls-40{fill:#55453f;}.cls-41{fill:#2b2017;}.cls-42{fill:#665852;}.cls-43{fill:#4b3d37;}.cls-44{fill:#9f7f5f;}.cls-45{fill:#6f5e56;}.cls-46{fill:#433730;}.cls-47{fill:#3c2d27;}.cls-48{fill:#34251d;}.cls-49{fill:#38251b;}.cls-50{fill:#331f17;}.cls-51{fill:#2b1c17;}.cls-52{fill:#281b15;}.cls-53{fill:#825b41;}.cls-54{fill:#faddc5;}.cls-55{fill:#f5d2b8;}.cls-56{fill:#cb9f84;}.cls-57{fill:#ba8f77;}.cls-58{fill:#b88e74;}.cls-59{fill:#a6785e;}.cls-60{fill:#af836b;}.cls-61{fill:#e5bba2;}.cls-62{fill:#c0937a;}.cls-63{fill:#f3d1b8;}.cls-64{fill:#f1cab0;}.cls-65{fill:#69442a;}.cls-66{fill:#9b7d61;}.cls-67{fill:#9e816c;}.cls-68{fill:#977653;}.cls-69{fill:#594c46;}.cls-70{fill:#0f0504;}.cls-71{fill:#3f322f;}.cls-72{fill:#5d3c27;}.cls-73{fill:#e2bea7;}.cls-74{fill:#eabfa0;}.cls-75{fill:#fce4c7;}.cls-76{fill:#472c1d;}.cls-77{fill:#9f6237;}.cls-78{fill:#8b522a;}.cls-79{fill:#ab8a6a;}.cls-80{fill:#b78f6e;}.cls-81{fill:#5b3f37;}.cls-82{fill:#a75326;}.cls-83{fill:#997966;}.cls-84{fill:#c57344;}.cls-85{fill:#e19264;}.cls-86{fill:#37261e;}.cls-87{fill:#352119;}.cls-88{fill:#f4d9c6;}.cls-89{fill:#e0bc9b;}.cls-90{fill:#6f5f5b;}.cls-91{fill:#c9a992;}.cls-92{fill:#623a1c;}.cls-93{fill:#3e312b;}.cls-94{fill:#1c0d08;}.cls-95{fill:#65554f;}.cls-96{fill:#483c37;}.cls-97{fill:#8b6247;}.cls-98{fill:#554742;}.cls-99{fill:#e9c8af;}.cls-100{fill:#653c27;}.cls-101{fill:#ae8369;}.cls-102{fill:#926850;}.cls-103{fill:#cd9173;}.cls-104{fill:#bb856c;}.cls-105{fill:#a47a61;}.cls-106{fill:#c99b7f;}.cls-107{fill:#68452f;}.cls-108{fill:#eabc9e;}.cls-109{fill:#c79d84;}.cls-110{fill:#c58d72;}.cls-111{fill:#e7c0a6;}.cls-112{fill:#6b4226;}.cls-113{fill:#d4a68c;}.cls-114{fill:#bd9279;}.cls-115{fill:#e5cab2;}.cls-116{fill:#d5ae97;}.cls-117{fill:#f7dac7;}.cls-118{fill:#e0c1ab;}.cls-119{fill:#e3cfc4;}.cls-120{fill:#ba8e78;}.cls-121{fill:#e6b287;}.cls-122{fill:#cbad97;}.cls-123{fill:#e7c3a4;}.cls-124{fill:#59280e;}.cls-125{fill:#f3d0b7;}.cls-126{fill:#d8b295;}.cls-127{fill:#b99a80;}.cls-128{fill:#5d2d17;}.cls-129{fill:#e7be94;}.cls-130{fill:#facea8;}.cls-131{fill:#fbe1ca;}.cls-132{fill:#7e563e;}.cls-133{fill:#af7a54;}.cls-134{fill:#f6d9c4;}.cls-135{fill:#4b2209;}.cls-136{fill:#fbe9d1;}.cls-137{fill:#cda992;}.cls-138{fill:#be9074;}.cls-139{fill:#b58570;}.cls-140{fill:#b48770;}.cls-141{fill:#5a351e;}.cls-142{fill:#ddb89d;}.cls-143{fill:#6a442f;}.cls-144{fill:#a66e53;}.cls-145{fill:#f5ebe6;}.cls-146{fill:#f4ede7;}.cls-147{fill:#bdaba2;}.cls-148{fill:#a66b4d;}.cls-149{fill:#b97856;}.cls-150{fill:#d8c8bf;}.cls-151{fill:#d5bbb1;}.cls-152{fill:#f8e1ca;}.cls-153{fill:#bb8f73;}.cls-154{fill:#965a40;}.cls-155{fill:#e3c0ab;}.cls-156{fill:#dbd3cd;}.cls-157{fill:#bf967f;}.cls-158{fill:#925f41;}.cls-159{fill:#f9e1cb;}.cls-160{fill:#605b5a;}.cls-161{fill:#f5cdb3;}.cls-162{fill:#97918d;}.cls-163{fill:#7d5a44;}.cls-164{fill:#9d908a;}.cls-165{fill:#d5c6be;}.cls-166{fill:#f0cdb2;}.cls-167{fill:#9e9895;}.cls-168{fill:#757068;}.cls-169{fill:#b68f77;}.cls-170{fill:#5b5654;}.cls-171{fill:#f3d5c0;}.cls-172{fill:#86827f;}.cls-173{fill:#e0ddde;}.cls-174{fill:#e0dddb;}.cls-175{fill:#e1dddb;}.cls-176{fill:#f1f0ee;}.cls-177{fill:#ac8873;}.cls-178{fill:#6d6865;}.cls-179{fill:#837d78;}.cls-180{fill:#b5a197;}.cls-181{fill:#edccb2;}.cls-182{fill:#a8a2a0;}.cls-183{fill:#635c58;}.cls-184{fill:#f2ccb0;}.cls-185{fill:#a37a66;}.cls-186{fill:#686260;}.cls-187{fill:#675d56;}.cls-188{fill:#daab91;}.cls-189{fill:#645f5b;}.cls-190{fill:#56504c;}.cls-191{fill:#eee8e6;}.cls-192{fill:#e8ded8;}.cls-193{fill:#bb9a87;}.cls-194{fill:#a27d6a;}.cls-195{fill:#e0b397;}.cls-196{fill:#d7d2ca;}.cls-197{fill:#e4dfdf;}.cls-198{fill:#e7e2e1;}.cls-199{fill:#eae6e6;}.cls-200{fill:#ddd5d1;}.cls-201{fill:#a87f6a;}.cls-202{fill:#888584;}.cls-203{fill:#d8d6d1;}.cls-204{fill:#7a7671;}.cls-205{fill:#726e6b;}.cls-206{fill:#cb9379;}.cls-207{fill:#f2d7bf;}.cls-208{fill:#bc8f74;}.cls-209{fill:#d5ae93;}.cls-210{fill:#e9ece4;}.cls-211{fill:#d8d9da;}.cls-212{fill:#e3dcdc;}.cls-213{fill:#e5e4e1;}.cls-214{fill:#e1dddc;}.cls-215{fill:#9b7056;}.cls-216{fill:#292d3c;}.cls-217{fill:#e0bba6;}.cls-218{fill:#8f6852;}.cls-219{fill:#d7dce5;}.cls-220{fill:#d4d0cc;}.cls-221{fill:#dbd7d2;}.cls-222{fill:#d7a789;}.cls-223{fill:#f6d7bc;}.cls-224{fill:#efcdb6;}.cls-225{fill:#e0cbb7;}.cls-226{fill:#a1745c;}.cls-227{fill:#3d3537;}.cls-228{fill:#8e9295;}.cls-229{fill:#b2856a;}.cls-230{fill:#ab8a77;}.cls-231{fill:#e4e5e5;}.cls-232{fill:#976f59;}.cls-233{fill:#6b6766;}.cls-234{fill:#85624c;}.cls-235{fill:#bc8d74;}.cls-236{fill:#a8826a;}.cls-237{fill:#cfc8c6;}.cls-238{fill:#a58b7b;}.cls-239{fill:#70353a;}.cls-240{fill:#716d6d;}.cls-241{fill:#585656;}.cls-242{fill:#bf9980;}.cls-243{fill:#555c64;}.cls-244{fill:#686b71;}.cls-245{fill:#b6b5b3;}.cls-246{fill:#afaeae;}.cls-247{fill:#818281;}.cls-248{fill:#929190;}.cls-249{fill:#90888b;}.cls-250{fill:#9d928d;}.cls-251{fill:#a49fa1;}.cls-252{fill:#817a78;}.cls-253{fill:#e1dad9;}.cls-254{fill:#f2eff0;}.cls-255{fill:#ece9e8;}.cls-256{fill:#eeeae9;}.cls-257{fill:#f7f1ed;}.cls-258{fill:#d9d7d6;}.cls-259{fill:#dedbda;}.cls-260{fill:#eee9e7;}.cls-261{fill:#ece8e6;}.cls-262{fill:#f4efee;}.cls-263{fill:#f0eae7;}.cls-264{fill:#ebe2e1;}.cls-265{fill:#e2e4e6;}.cls-266{fill:#dcd9d8;}.cls-267{fill:#e1dfdb;}.cls-268{fill:#ede8e7;}.cls-269{fill:#93938f;}.cls-270{fill:#f9eae9;}.cls-271{fill:#ece4dd;}.cls-272{fill:#b1aaa5;}.cls-273{fill:#8b8784;}.cls-274{fill:#81858f;}</style></defs><title>swiss-classicrosegoldwatch-swissboy</title><g id="Calque_2" data-name="Calque 2"><g id="Calque_1-2" data-name="Calque 1"><path class="cls-1" d="M38,15.06c3.9-7,8.87-12.38,17.71-12.15C67.91,6.28,80.26,4,92.53,4.28c6.1.12,11.84-.31,17.36-3A4.85,4.85,0,0,1,113.31,1c8.26,2.46,16.7-.45,25,.88,4.09-1.44,7.62,2.2,11.65,1.28,2.07,2.2,1.16,4.73.4,7-2.09,6.08-2.15,12.49-3.35,18.69a4.13,4.13,0,0,0-1.75,4.36c-.16,3.24-.48,6.48.27,9.7a3.23,3.23,0,0,1-1.17,2.5c-1.13.79-2.52,1.06-3.67,1.82-1.62.36-1.47,3.67-4,2.45-1.43-3.78.86-7.09,1.34-10.63.29-2.1,1.71-4,1.2-6.72-.94,4.66-5,6.94-6.24,11.12-.57,2-3.28,2.14-5.25,1.15-1.72-.86-.83-2.15-.61-3.69a50.65,50.65,0,0,1,3-10.78,8.12,8.12,0,0,1,1.34-7c-2.4-1.43-4.76-2-7-1.44-8.87,2.27-18.17.71-27,3.39-3.74,1.13-7.95.61-11.9,0-2.7-.44-6.49-.84-7.72.57-3.84,4.4-6.83.79-10.3.16-3.9-.71-8-.92-11.7,1.13-.29.16-.59.43-.89.43-5.08,0-9.27,2.05-13,5.34-1.28,0-1.44-2.84-3.33-1.28-4.05-3.8-5-8.64-2.3-12.83C37,17.38,37.36,16.16,38,15.06Z"/><path class="cls-2" d="M161.8,332a13.92,13.92,0,0,1-1.66,6c-1.52,1.74-3.76,3-3.75,5.77a2.94,2.94,0,0,1-1.55,2.41c-1.67.91-3.5,3.15-5.22,1.86-2.31-1.73,1.86-2.62,1.2-4.28.57-.71-.5-.57.11-.3.19.08,0,.19-.1.48-.54,1.22-1.65,2.12-2.7,1.51-3.42-2-3.15,1.06-4,2.66a6,6,0,0,1-5-.68,1.82,1.82,0,0,1-.56-1.92,3.33,3.33,0,0,0,.52-4.57,32.74,32.74,0,0,1-1.8-5.69,12.19,12.19,0,0,0-2.49-5,3,3,0,0,1,.08-1.91c-1.46-6.4-2.94,1.38-4.4,0a10.8,10.8,0,0,1-4.83,1c-11.9-.55-23.71,1.77-35.6,1-3.32-.2-6.51,1.33-9.82.41-1.5-.71-3-1.77-4.71-1.27-6.31,1.86-12.55,0-18.82-.18-2.23-.08-5.31.35-5.28-3s3-3.72,5.54-3.68c8.17.14,16.28-.79,24.42-1.13,1,0,2-.35,2.94-.48a6.22,6.22,0,0,1,5.3,1.67,27.18,27.18,0,0,0-9.7-5.22c-3.37-1.71-7-1-10.52-1.12-1.77-.09-3.57.1-5.26-.67a3,3,0,0,1-1.5-1.89c.81-3.3,3.59-3.26,6-3,4.68.43,9.21.55,13.62-1.49a3.72,3.72,0,0,1,4.22.53c1.37,1.34-.12,2.35-1,4.46,5-6.91,11.55-7.29,18.21-6.42a64,64,0,0,0,19.29,0,8.3,8.3,0,0,1,5.79.78,10,10,0,0,1,1.82,2.3c.39.51,1,1.23,1.6.75.85-.69,0-1.44-.37-2.13-2.19-5-1.75-5.55,4.3-5.6a13.5,13.5,0,0,0,4.61.9c1.35.89,1.34,2.35,1.56,3.71.56,4.5,2.42,8.91.92,13.57a2.73,2.73,0,0,0,1.18,3,5.17,5.17,0,0,1,2,4.18c.59-1.07-1.32-3.9,2.12-3.22a3.44,3.44,0,0,1,1,.9c1,1.9,1.42,4.13,3.49,5.3a3.23,3.23,0,0,0,3.18,1.23C158.34,334,159.7,331.61,161.8,332Z"/><path class="cls-3" d="M1.73,271.76C.07,264.38,1,256.89,1,249.46q-.08-56.82.11-113.65c0-3-1.54-5.82-.87-8.86.8-1.22,1.63-1.66,2.56-.11A8,8,0,0,1,3,128.62c-.22,38.18,1.74,76.34.59,114.51-.11.67.75-.37.16,0-.15.08-.26-.06-.23-.42.85-12.8.69-25.63.45-38.44-.6-31.57-.86-63.14-1.32-94.71,0-2.45-.49-5,1.05-7.28a1.17,1.17,0,0,1,1.7,0c1.52,2.23,1.2,4.79,1.21,7.25,0,10.64.19,21.28,0,31.92-.26,13.14,1.8,26.21,1,39.35-.3,21.12-.32,42.25.12,63.38A52.15,52.15,0,0,0,9.22,254c1,3.87-3.44,2.07-4.28,4a2.77,2.77,0,0,0,0,2.87c.88,1.88,4.09.48,4.41,3.13s2.64,1.78,3.85,1.29c2.91-1.15,6-1.8,8.73-3.51a182.77,182.77,0,0,1,25.82.29c9.08.89,18.22.08,27.33.39,8.31.23,16.63.14,24.94,0,12.31-.25,24.56,1.24,36.86,1.18a6.21,6.21,0,0,1,3.81.94,1.19,1.19,0,0,1,.18,1.72c-1.71,1.33-3.75,1.05-5.71,1.11-11.7.34-23.41.27-35.11.07-15.07.34-30.13-.1-45.19,0-10.06-.11-20.14.15-30.22-.19,9.18.46,18.37.13,27.57.34,1.52.1,3,.18,4.08,1.53.22,3.36-2.42,3.2-4.41,3.24a161.17,161.17,0,0,1-17.83-.16c-7.86-1.74-15.82-.56-23.73-.77-1,0-1.43.71-1.89,1.41-1.91,1.73-3.82.78-5.74,0A2.24,2.24,0,0,1,1.73,271.76Z"/><path class="cls-4" d="M143.9,45.25l.93-2.5a4.1,4.1,0,0,1-.11-2.8c4-2.47,8.37-2,12.57-1.33,2.29.35,4.14,1.08,5.4-1.49A5.28,5.28,0,0,1,164,34.58c1.33-.8,2.85-1.42,4.11-.29s.62,2.66.25,4.14c-1.31,5.27,1.65,10.11,1.74,15.3,0,2.11-.4,4.77,2.1,6.21a1,1,0,0,1,.76.27A40.46,40.46,0,0,1,174,86.06c-1.28,1.6-3.76.19-5,2-3.8,1.25-3.9-2-4.93-4.07a42.06,42.06,0,0,1-.42-11.68c.28-4.22-1.13-6.49-5.49-6.58-3.93-3.25-3-8.21-4.19-12.4-1.07-3.84-2.57-6.46-7-6C145.71,47,144.24,47,143.9,45.25Z"/><path class="cls-5" d="M139,345.1l.08,2c1.73,1.16,3.9,1.38,5.61,2.6.34.5.7,1,0,1.53a1.1,1.1,0,0,1-1.58-.2c-25.56-.34-51.11-.63-76.67-1.14-1.9,0-3.65,2.09-5.56.29-.51-1.24-1.76-2.17-1.6-3.7.25-2.39,2.72-2.36,4-3.67a7.66,7.66,0,0,1,3.19-1.8c10.18-1.67,20.38-.41,30.58-.24,3,0,5.26,1.59,7.63,3,.63-.27,1.23-.59,1.88-.8,10.63.42,21.43-2.74,31.85,1.63Z"/><path class="cls-6" d="M38,15.06a5.42,5.42,0,0,1-1.08,3.63c-1.5,2.16-3,4.16.09,6.68,1.33,1.09-.54,4.39,2.05,5.68a3.15,3.15,0,0,1,.55,4.08c-1.93,2.62-1.61,6-3.17,8.5-.76.5.53.64.15.09,0,0,.13-.1.37-.32a10,10,0,0,1,1.18-.9C40.45,41.58,42,37.89,45,40s2.45,5.54,2.15,8.68-3,3.56-5.38,4.2c-4.13,1.1-4.13,1.11-4.92,4.52-4.63.41-7.77,5.41-12.94,4.23-3.31-1.94-2-5.16-2.13-7.93-.09-2.13.75-4.15,1.27-6.2a8.09,8.09,0,0,1,1-1.37c2.66-6.76,5.23-13.56,8-20.27C33.67,22,35,18.09,38,15.06Z"/><path class="cls-7" d="M138.3,1.89c-1.52.87-2.64,1.71-4.86.71a10.85,10.85,0,0,0-9.22.07,9.29,9.29,0,0,1-8.57.11c-3.5-1.64-6-.25-8.79,1A23.47,23.47,0,0,1,95.42,5.59c-5.36-.27-10.87.54-16.33.41-4.87-.11-9.6-.47-14.53.94-1.57.45-4.81-.82-7.48-.75-1.72,0,2.07-3.32-1.35-3.28C64,.31,72.7,1.15,81.19.62A353.7,353.7,0,0,1,138.3,1.89Z"/><path class="cls-8" d="M.23,83A4.86,4.86,0,0,1,0,82.38c0-.1,0-.22.07-.33A34.51,34.51,0,0,0,4,72c2.87-7.39,5.81-14.75,8.57-22.18,1.34-3.61,4.13-3.83,7.25-3.67a2,2,0,0,1,.73,2.22c-3.29,12-6.32,24.06-11,35.63-1.4,1.31-3.28,1.16-5,1.62a6.85,6.85,0,0,1-1.39.22C.91,86.32,1.34,83.85.23,83Z"/><path class="cls-9" d="M21,307.14c-3.53-.13-5.66-1.91-7.13-5.16-3.67-8.17-7.7-16.17-11.39-24.33-.79-1.76-2.82-3.64-.78-5.89l.49.44c2.75,2.12,6.31.34,9.18,1.89,2.6,4.79,3,10.53,6.44,15a12.52,12.52,0,0,1,1.45,4.35c.25,2.83,1.34,5.44,2.11,8.14C21.93,303.42,22.68,305.37,21,307.14Z"/><path class="cls-10" d="M9.2,83.85,19.84,46.19l4.22-.1,0,1c-2.66,5-1.71,10.63-2.46,16-.18,1.29.2,2.65-.53,3.88-4.34.4-6,3.54-5.88,10.17.06,4.56,3,4.41,6.13,4.41H125.41c2.15,0,4.35-.2,6.44.43,1.11.34,2.78.54,1.84,2.51-2,1.3-4.17,1-6.3,1-12.14,0-24.28,0-36.41,0-24.92,0-49.84,0-74.76,0C13.81,85.41,11.15,86.08,9.2,83.85Z"/><path class="cls-11" d="M171,154.1c7.66-2.18,9.24-1.09,9,7-.46,15.24-1.18,30.47-1.8,45.86-1.85-.61-.6-2.17-1.49-3-1,.39-1.13,2.36-2.77,1.9a4.15,4.15,0,0,1-.26-5.07c3-5.09,2.12-10.45,1.38-15.83-.8-4.61,0-9.35-1.11-13.94-.36-5.11-1-10.15-3.33-14.84A2.21,2.21,0,0,1,171,154.1Z"/><path class="cls-12" d="M170,216.89c-1.81,8.7-1.17,17.55-1.7,26.33-.93,15.61-1.61,31.23-2.39,46.85-.85,1.3-1.73,1.69-2.69.1-.34-8.48.36-16.92.75-25.38,1.11-3.42.5-6.92.47-10.38-.15-15.76,1.64-31.47,1.07-47.23-.07-1.81,0-3.68,1.52-5.09,3.38.67,3.08,3.86,4.2,6.09A43.7,43.7,0,0,1,170,216.89Z"/><path class="cls-13" d="M60,349.82c-7.32,1.17-11.93-3.22-15.92-8.24A43.92,43.92,0,0,1,37,329.1c-1-3.3,1.81-3.55,3.64-4.58,2.66,0,3.69,2,4.6,3.92,3.52,7.22,7.28,14.23,13.89,19.22A2.13,2.13,0,0,1,60,349.82Z"/><path class="cls-14" d="M170,106l0,2c-1.16,2.29-2.57,4.55-.82,7.17,1.24,2.89,2.47,5.78,5.55,7.28a4.06,4.06,0,0,1-2.22,5.33,7.92,7.92,0,0,1-2.45.51c-.85.07-1.7.06-2.55.09-2.3,0-4.67.32-6.7-1.2-2.15-5.48-1-11.15-.84-16.75.11-3,2.78-2.84,4.77-3.44C166.41,106.64,167.87,104.62,170,106Z"/><path class="cls-15" d="M40.94,325c-.84,1.82-3.74,1.64-4,4.07-4.26-7.51-7-15.81-11.94-23-1.52.21-1.5-.77-1.4-1.81.77-1.14,2.05-1.59,3.17-2.24S29,301,30,302.09c1.19,1.4.13,2.37-1,3.24,2.17.74,4.93.09,6.25,2.71-.43,1.09.17,1.87.82,2.63.78,2.27,3.61,2.8,4.32,5.12-.4,2.1.92,3.62,1.8,5.3a4.8,4.8,0,0,1,.47,1.26A2.44,2.44,0,0,1,40.94,325Z"/><path class="cls-16" d="M172.11,127c1.88-1,2-2.65,1.81-4.44-1.57-2.9-2.22-5.78.22-8.58a9.36,9.36,0,0,1,4,6.26c1.17,6.69.72,13.49,1.77,20.22,1.21,7.73-2,11.46-8.86,11.6a1.16,1.16,0,0,1,0-1.25c2-.86,2.28-2.66,2.52-4.49,1-5.27.28-10.44-.79-15.61C172.5,129.44,171.26,128.37,172.11,127Z"/><path class="cls-17" d="M.23,83c2.42-1.22,1.16,2.64,3,2.19a9.42,9.42,0,0,1,2.46,5.41,7,7,0,0,0,.66,3.69c-3,2.94,1.64,5.23.68,8a1.67,1.67,0,0,1-2-.15L4,102.05c-1.24,7-.13,14.06-.6,21.07C3.36,124.45,4.72,126.57,2,127q0-.48,0-1c-3-4-.44-8.78-1.79-13Z"/><path class="cls-18" d="M172.22,59.93c-2.36.33-2.82-.86-3.31-3-1.15-5,.41-10.59-3-15.19-.92-1.25.07-2.14.9-3,1-1,1.74-2.34.94-3.52s-2.42.21-3.65-.16a2.51,2.51,0,0,1-1.86-1.45,92.37,92.37,0,0,1-1.5-10.38c.19-1.23.1-2.77,1.6-3.11,1.32-.3,1,1.28,1.52,1.91.4,4.7.31,9.57,5.49,12.22A3.72,3.72,0,0,1,171,37.73C170.81,45.17,173,52.47,172.22,59.93Z"/><path class="cls-19" d="M164.16,291.09l1.75-1c-1.33,14-1.1,28.14-4.11,42-1.94.63-2.72,4.61-5.77,2-.37-5.15,3.28-9.53,2.81-14.7,1.91-7.82,2.2-15.89,3.7-23.78C162.84,294,162.66,292.24,164.16,291.09Z"/><path class="cls-20" d="M170,216.89v-8.8c.63-4.56-1.62-8.88-1.15-13.42a16.13,16.13,0,0,1,2.45-6.35,25.68,25.68,0,0,0,4.84-3.49c1,5.56,2.62,11.16-1.5,16.3-1.08,1.34-.94,3.12-.76,4.78C172.12,209.4,172.19,213.54,170,216.89Z"/><path class="cls-21" d="M143.11,351c.43-.22,1.7.49,1-.94a1.28,1.28,0,0,1-.17-2l.28-4.4c2.73.21,5.87,2.77,6.64-2.36,2.47,3.05-.68,4.27-1.57,6.93,3.38-2.19,6.47-3.22,6.81-7.3.17-2,2.79-1.7,4-2.86.12,2.27-1,4.17-1.85,6.14C155.64,350.39,150.15,352.81,143.11,351Z"/><path class="cls-22" d="M170,106c-1.73-.19-2.57,1.63-4.13,1.82a4.43,4.43,0,0,1-1.12-2.49c-.29-5-.21-9.93-1-14.87-.35-2.23-.57-4.68,1.42-6.51,1.35,1.31,1,4.27,3.92,4A106.36,106.36,0,0,1,170,106Z"/><path class="cls-23" d="M174,86.06c-2.43-2.47.3-4.85.27-7.32-.07-6.22-1.19-12.34-1.33-18.53,3.38.74,4.15,2.77,4,6.15a130.47,130.47,0,0,0,.33,15.29C177.4,84.2,176.86,85.86,174,86.06Z"/><path class="cls-24" d="M40.94,325,42,322c1.66-1,2.36.12,3,1.34,4.56,8.15,9.08,16.34,15,23.62,0,1.14,2.47,1.62.84,3.18a1.07,1.07,0,0,1-.84-.33c-7.45-5.19-12.21-12.39-15.69-20.64C43.69,327.62,42.82,325.8,40.94,325Z"/><path class="cls-25" d="M146,30c-.09-7.54,1.54-14.8,3.47-22A29,29,0,0,0,150,3.16c1.68-1,2.83.19,4.06,1a1.82,1.82,0,0,1,.42,1.28,7.89,7.89,0,0,1-1.25,3.92c-2.37,1.46-1.87,3.81-1.84,6,.05.77,0,1.53,0,2.3.13,3.51-1.19,6.73-2.09,10C148.86,29.25,148.39,31.12,146,30Z"/><path class="cls-26" d="M171.11,150.82,171,152l0,2.09.36,1.9a1.13,1.13,0,0,1-.44,1.34c-2.69.64-3.38-1.21-4-3.18-1.62,1.15-3.35,1.73-5.25.8a3.61,3.61,0,0,1-1.75-2.81,11.68,11.68,0,0,1-.17-2.34c0-3.77,1.77-4.62,5-3C167,148,170,147.86,171.11,150.82Z"/><path class="cls-27" d="M174.14,113.93q-.11,4.29-.22,8.58c-3-.1-5.75-.46-4.47-4.73.29-1-.93-1.19-1.49-1.73.15-2.42,1.58-4.21,2.95-6C173.44,110.12,174.26,111.64,174.14,113.93Z"/><path class="cls-28" d="M24.3,304a2.08,2.08,0,0,0,.74,2.1c-1.18,1-2.26,2.36-4,1,.39-5-3.38-9.11-3-14.11a4.8,4.8,0,0,1,3.87-.15c1.64,1.55,1.62,3.75,2.25,5.7a17.81,17.81,0,0,1,.7,4.17A3.4,3.4,0,0,1,24.3,304Z"/><path class="cls-29" d="M163.88,22l-1.45-1.14-.5,2.18c-3.78-2.79-4.36-7.67-7.22-11.05.5-2.29,2.12-1.5,3.53-1.29,1.83.43,2.75,1.92,3.79,3.27A19.23,19.23,0,0,1,163.88,22Z"/><path class="cls-30" d="M162,14c-1.39-.54-2.26-2.1-4-2-2.61-1.58-5.1-3.24-4.06-7q0-.43,0-.86C159,5.61,160.54,9.77,162,14Z"/><path class="cls-22" d="M170.91,110c.17,2.58-1.56,4.22-2.95,6-1.27-3.15-2.25-6.22,2-8Z"/><path class="cls-31" d="M.19,113.06c1.86,4.16-.11,8.86,1.8,13L.2,127Q.19,120,.19,113.06Z"/><path class="cls-17" d="M4,72A11.84,11.84,0,0,1,.08,82,28.55,28.55,0,0,1,4,72Z"/><path class="cls-32" d="M36,57c2.33-2-.2-2.59-1.07-3.64,2.55-.77,5-1.95,7.59-2.18,2.88-.26,3.7-1.46,3.51-4.1-.16-2.3.52-5-1.63-6.48-2.48-1.66-2.7,2.3-4.66,2.54A6.52,6.52,0,0,0,38,44c-1.59-4.66,1.75-8,3.07-12,3.77-2.66,7.09-4.91,12.28-6C61,24.33,67.46,22.66,74.48,27.8c.06-1.83-1.76-4.19,1.93-3.88,3.87.32,7.72-.58,11.74,0,8.3,1.14,16.38-3,24.49-2.37,6.15.44,11.91-3.24,18.07-.61,3.45,1.47,3.5,1.07,1,3.95-1.54,1.75-.38,4.11-.68,6.18-6.28.53-12.57,1.08-18.87,1.37-3.83.17-7.7.29-10.7,3.26a4.43,4.43,0,0,1-4.67.84,14,14,0,0,0-7.21-1.74c-9.65-.2-19.23-1.62-28.92-1.4-4.17.09-6.25,1.39-7.18,5.7C51.11,50,52.54,51.41,63.89,50.91c11.94-.52,23.86-2.16,35.85-1.31,2,3-.44,3.79-2.4,4.59-3,1.22-6.17,1.26-9.33,1.16-13.61-.42-27.16.88-40.75,1.21-1.2,0-2.83-.56-3.06,1.52a13.87,13.87,0,0,1,.23,2.07,1.76,1.76,0,0,1-.64,1.23,2.66,2.66,0,0,1-2.1,0C40.18,59.46,36.63,60.14,36,57Z"/><path class="cls-33" d="M101,35c.28-3.83,3.53-3.13,5.67-3.27,8.09-.54,16.15-2.92,24.33-.73-2.81,3.35-1.26,8.12-3.79,11.63-.43.6.75,1.3,1.64,1.35,1.73.09,3.78,0,3.89-2.1.16-2.9,1-4.84,3.79-6.07,1.74-.77,1-2.47.66-3.94a1.85,1.85,0,0,1,1.31-2.36c1.46-.37,1.29,1.06,1.74,1.84.94,1.64.33,3.11-.11,4.74-1.24,4.59-3,9.08-3.08,13.93l-.42.78c-.47.48-1.05,1-1.68.93-8.74-1.07-17.41,1.05-26.13.6a11.24,11.24,0,0,1-6.05-1.92C100.13,45.55,98.86,40.49,101,35Z"/><path class="cls-34" d="M143.9,45.25c.68,1.25,2,.65,3,1A4.67,4.67,0,0,1,148,47.7c2,9,1.58,18.17,2.4,27.25.75,8.38-.1,8.91-8.43,9.75a4.18,4.18,0,0,1-2.42-.14c-1.85-2-.25-3.66.61-5.23a6.93,6.93,0,0,0,.22-7c-1.63-3.2-.76-7.18-3.13-10.17A51.17,51.17,0,0,1,140,46,3.29,3.29,0,0,1,143.9,45.25Z"/><path class="cls-35" d="M140,46c.32,5.77-1.59,11.31-1.84,17,.67,3.58-1.88,4.2-4.36,4.32-5.71.27-11.44.66-17.13-.32-4.46-3.7-9.89-2.68-14.83-2.32-6,.43-11.93.58-17.9.69a7.78,7.78,0,0,0-3.75,1.19,5.28,5.28,0,0,1-3.34.11c-3.94-1.73-8.12-2.14-12.35-2.28-2.1-.07-4.26.24-6.19-.95-.26-4,3-2.73,4.68-2.68,11.51.32,23-1.74,34.49-.65,3.34-1.27,6.78.43,10.14-.38,2-.13,4-.12,6.05-.11,7-.8,14.14-.37,21.12-1.62,1.35-1.57.73-3.53,1-5.31A6.94,6.94,0,0,1,137,50l0,0C138.39,49,137.91,46.55,140,46Z"/><path class="cls-36" d="M146,30c3.63-3.6,3.57-8.36,4.09-12.94,2.44-1.35,3.19.67,4.07,2.15a25.94,25.94,0,0,1,3.73,10.69,8.67,8.67,0,0,0,6,8.07c-1,3.23-4.46,3.25-5.91,2.47-4.43-2.38-8.57,0-12.79-.25-1.86-2.17,1.45-5.17-1.14-7.22C144.69,32,142.3,29,146,30Z"/><path class="cls-37" d="M41,32c-.13,4.22-2.56,7.84-3.07,12-1,.42-1.93,1.32-3.19.76,1.21-4.64,4-8.79,4.32-13.71,1.25-.23.36-2.82,1.93-2.14C42.4,29.5,40.7,31,41,32Z"/><path class="cls-38" d="M144.05,33c1.53-.65,2.12,0,1.92,1.5-.24,1.91-.52,3.82-.78,5.73l-.36,2.53C142.6,39.66,144.16,36.26,144.05,33Z"/><path class="cls-39" d="M21.2,292.73c-.9,1.75-2.05.78-3.16.3l-1-4c-.93-4.8-.72-9.74-1.61-14.55a6.11,6.11,0,0,1,3.19-.82c4.78.06,9.56-.32,14.32.28,5.59,1.53,11.36.05,17,1,2.24.82,4.58.69,6.91.69,14.81,0,29.61.06,44.42,0,8,0,15.88.8,23.83,1,7.29.14,14.53-.49,21.79-.82a47.71,47.71,0,0,1,5.49-.06c4.58.32,6.07,1.91,5.4,6.37-1.12,7.51-2.39,15-2.9,22.59-1.29,4.59-5.46,4.48-9,5.49-1.75.16-3.48.27-4.71-1.36l-1-3.92c-2.89-2.94-1.46-7.45-3.86-10.57-1.31-1-2.85-.78-4.33-.85-28-1.25-56.1-1.09-84.15-.94-6.66,0-13.19-1.54-19.85-1.1C25.63,291.57,23.31,291.53,21.2,292.73Z"/><path class="cls-40" d="M24.3,304,24.21,303c.8-4.66,4.4-4.71,7.66-4,4.71,1,9.5,1.47,14.13,2.47,3.26.7,5.75-.81,8.6-.68,12.1.53,24.21-.62,36.33.48a80.91,80.91,0,0,0,14.37,0,106.53,106.53,0,0,1,26.11,1.17c1.81.29,3.66-.27,5.44.36a1.55,1.55,0,0,1,.22,2.23h-.5c-5.61.07-5.61.07-3.54,4.89-1.27,1.34-2.61,1.14-4,.19-2.56-2-5.33-1.06-8.05-.56a46.17,46.17,0,0,1-14.35.16c-6.78-.86-13.5-2.34-18.9,3.8a3.44,3.44,0,0,1-4.31,1l3.19-4c-7.55,1.36-14.66,2.46-21.92,1.91-.52,0-1.13,1.07-1.7,1.65-3.39,2.18-7.07,1.53-10.53.59-1.91-.52-1.76-.6-1.78,1.32,0,1.24-2.13,1.23-3.45,1.13a5.18,5.18,0,0,1-4.67-3.2,2.48,2.48,0,0,1-.11-1.94c.58-1.42-.48-1.68-1.38-2.09a2.11,2.11,0,0,1-.65,2.18c-2.65.45-3.16-2.92-5.47-3.06-.7-1.62-2.06-1.94-3.65-1.95-3.76,0-3.9-1.62-1.49-4C27.32,300.85,26.48,305.48,24.3,304Z"/><path class="cls-41" d="M137.08,305l-.13-1.89c-10.56-2.44-21.32-1.51-32-2-12.87-.62-25.75.95-38.65-1.11a56.48,56.48,0,0,0-19.77,0c-6.15,1.19-12.5-.82-18.76-1.45a4.74,4.74,0,0,1-3.39-2.75c-.85-3.26.57-4.46,3.77-4.76,5.52-.51,10.84,1.1,16.31,1.06,22.19-.16,44.38-.08,66.56.58,7.63.22,15.25.32,22.87.4,1.5,0,3,0,4.29.94,1.41,3.49,1.52,7.22,2,10.88C139.3,308.45,138.15,305.76,137.08,305Z"/><path class="cls-42" d="M40,312.07c.46-2.54,1.6-3.74,4.16-2.1.32.2.82.52.82.78-.08,5.32-.09,5.32,5.13,5a17.45,17.45,0,0,1-2.56-2.1,2.07,2.07,0,0,1-.07-1.81c.35-.76,1.23-.58,1.72-.18,4.18,3.45,9.14,2.13,13.85,2.36l1,1c-2.75,2.16-6,.42-8.55,1.4,6.08-.53,12.55-.32,19-.37,2.15,0,4.31-.11,6.21,1.18,2.43.89,5.47,1.11,5.4,4.8-8.78,1.74-17.67,2.05-26.59,2-1.17,0-2.33,0-3.5,0-1.71,0-3.72.11-3.66,2.36S54.51,328,55.84,328c6.74,0,13.46,2.18,20.26.15,1.36-.41,3.51-.71,3.88,1.83-6.51,2.86-13.26,1.78-20,1.11-2-.19-3.92-.52-4.71-.6-1.84-.3-1.11-1-1.29-.38,0,.17,0,.25.24.3,1.14.3,2.32.06,3.46.32,7.88,1.78,10.5,4.42,6.1,11A1.92,1.92,0,0,0,64,344c-.76,1.74-4,.2-3.95,3-5.23-3.3-8-8.54-10.79-13.76A64.17,64.17,0,0,0,42,322l0,.05a7,7,0,0,1-1.5-5.95c.06-1.1-.73-1.92-.95-2.93A1.29,1.29,0,0,1,40,312.07Z"/><path class="cls-43" d="M64,344c-1.29-.2-3.49.54-2.11-2.25,3.44-7,2.43-9-5.46-10.6-1.9-.38-3.82-.45-6.16-2.19,10.39,1.88,20.05,1.29,29.71,1,15.2-1.09,30.42-1.88,45.67-2a41.9,41.9,0,0,0,6.35-1c1.83-.3,4-1.2,4,2l-1,.86a2,2,0,0,1-2.47,1.4c-8.17-2-16.09-1-23.85,2-2.23.84-3.12,2.24-2.32,4.64.68,2,1.34,4.18-.43,6.09l-1,1c-2.69-.73-2.1-3.34-2.69-5.11-1.56-4.69-4.54-6.9-9.49-7.13-5.64-.25-11.19.63-16.78.86s-7.68,4.42-10,8.38Z"/><path class="cls-44" d="M160,320c.2,5.1-2,9.52-4,14-1.34.68-2.43.57-3.06-1-1.15-2.12-2.63-4-3.94-6h0c-2.06-2.82-4.28-5.59-2.66-9.44,3,.47,4.81-.66,6.29-3.49,1.13-2.16,3.26-1.54,4,.68S158.15,318.77,160,320Z"/><path class="cls-45" d="M147.12,317c-1.17,3.68,1.69,6.59,1.91,10-1-.31-1.88-.74-2,1-.12,1.46,1.56,2.68.18,4.76-1.31-3.34-2.2-6.64-5.37-8.35a1.87,1.87,0,0,1-.37-1.79c2.93-4.71-.15-9.23-.3-13.83L146,309C148.17,311.46,149,314.05,147.12,317Z"/><path class="cls-40" d="M81,318c-5.66-2-11.5-.64-17.26-.9-3.26-.15-6.53,0-10.84,0,4.19-2.13,7.61-2.16,11-2.08,3.92,0,7.84,0,11.76,0,2,0,3.89.35,5.27,2q.52.31.35.63C81.26,317.9,81.15,318,81,318Z"/><path class="cls-46" d="M81,318q0-.48,0-1c5.58.68,8.91,4.54,13.31,8.68-4.46.47-5.26-3.78-8.26-3.71C84.79,320.19,83.54,318.31,81,318Z"/><path class="cls-47" d="M140,341a4.11,4.11,0,0,1,1.49,4.28c-.41,1.23-1.62-.12-2.49-.21h0c-3.4-1.05-2.91-3.5-2.16-6C138.79,338.21,139.08,340.11,140,341Z"/><path class="cls-48" d="M136,329c-.38-2.61-3.22-.28-4-2,.22-1.33-.17-3.73,1.75-3.2A3.45,3.45,0,0,1,136,329Z"/><path class="cls-49" d="M129.06,310.1l4-.19c.89.3,2.17.57,1.18,1.81-.59.74-1.24,2-2.7,1.45S128.93,311.88,129.06,310.1Z"/><path class="cls-50" d="M135.29,318.54c-.31,1.05-.16,2.3-1.77,1.76-1.26-.42-2.63-.66-2.45-2.44.15-1.61,1.25-1.06,2.15-.88S135.77,316.75,135.29,318.54Z"/><path class="cls-51" d="M133,331l2-1.16c2.74.71,2.8,3,2.94,5.15l-.63.24C135.34,334.47,132.88,334.1,133,331Z"/><path class="cls-52" d="M140,341l-3.06-1.9a1.61,1.61,0,0,1-2-1.58c0-1.93,1.85-2,3.17-2.53l0,0C139.62,336.72,139.36,339,140,341Z"/><path class="cls-45" d="M149,327a7.85,7.85,0,0,1,3.94,6C149.55,332.42,149.22,329.77,149,327Z"/><path class="cls-47" d="M144,348.07l.16,2c-2.06-.38-4.11-.78-5.09-3A6.74,6.74,0,0,1,144,348.07Z"/><path class="cls-53" d="M140.93,265.88a2.67,2.67,0,0,0,0-.71c-1.37-1.32-3.06-.57-4.59-.61-2.08,0-3.44-.68-3.69-2.9.58-2.9,4.1-.53,5-2.81-1.12-1.69-5.2-.52-4.13-4.31.21-.81.58-1.55.83-2.34.5-23.43,0-46.85.22-70.26.07-9.13-.33-18.27.24-27.39,1-2.82.72-5.75.78-8.65,0-1.77-.09-3.6,1.34-5,2.7.63,2.44,2.88,2.38,4.77-.35,9.79-.34,19.59-.34,29.38q0,2.75,0,5.5c0-12.23,0-24.46.42-36.69.15-4.78-.88-9.56-1-14.4a139.7,139.7,0,0,1,1.63-21.34c.33-2.58,1.5-4.69,4.29-4.61,3,.08,2.95,2.73,3,4.87.16,6.16-.05,12.33.09,18.49.26,11.63-.07,23.25.72,34.9.76,11.23-.57,22.66-.34,33.87.43,20.12,0,40.25.9,60.35a68.93,68.93,0,0,1-.21,14.62c-.41,3.15-2.14,5.31-5.18,4.51-3.52-.92-8.11,2-10.59-2.73.79-1.52,2.12-1.45,3.51-1.18-1.23-.54-3,.18-3.58-1.75.22-2.24,1.56-2.9,3.66-3C137.86,266.46,139.56,267.22,140.93,265.88Z"/><path class="cls-54" d="M5.1,102.13l1.72-.25c5.34-2.5,10.9-1.16,16.39-.88,1,0,2.08.71,2,1.79-.08,2.48-2.35,2.27-3.93,2.87-1.21.57-2.68.86-2.8,2.63.21,14.23-.1,28.44-.11,42.66,0,2.28.41,4.66-1,6.76-2.58,1.13-2.67-1.23-3.22-2.51a15.77,15.77,0,0,1-1-7.13c.33,22.58-.35,45.15-1.52,67.7-.2,3.82-.1,7.65-.16,11.47a20.53,20.53,0,0,1-.41,5c-.36,1.35-1,2.74-2.5,2.72S7.26,233.34,7,232.24a24.48,24.48,0,0,1-.46-5.95c0-13.47,0-26.94,0-40.41,0-1.62.49-3.33-.5-4.86C5.42,154.73,4.61,128.44,5.1,102.13Z"/><path class="cls-55" d="M6,181c1.65,1.47,1,3.43,1,5.18q.09,20,0,40a14,14,0,0,0,2.17,8.05c1.49-30.84,3.09-61.65,3.68-92.61,1.41,5.54,1,11.4,4.1,16.39,1.86,1.7,1.43,4,1.45,6.09.07,7.82,0,15.64,0,23.46,1.12,8.17-1.66,16-2.12,24-.69,12.22-.86,24.46-1.79,36.66-.21,2.76.39,5.71-2,7.93a2.5,2.5,0,0,1-3.41-.32c-3.76-3.28-2.86-8-2.93-12C5.87,223,6,202,6,181Z"/><path class="cls-56" d="M133.08,270c2.51.43,5.22-.76,7.56.94.07,0,.05.34,0,.44a5.8,5.8,0,0,1-.66.61c-5.89-1.29-11.55.71-17.32,1.19-17.26.79-34.53.18-51.8.35-1.5,0-3.3-1-4.29,1.13-3.18,1.37-6.53.56-9.79.81-12.65-.3-25.29-1-37.95-.93-1.09-.14-2.47.46-3-1.16,7.14-3,9.24-3.34,17-2.45,6.45,0,12.91.1,19.36.1,1.56,0,3.5.51,3.86-2,1.85-1.9,4.26-1.47,6.53-1.49,12.52-.15,25,1.37,37.54,1,9.3-.29,18.6-.12,27.9-.08C129.79,268.49,131.67,268.5,133.08,270Z"/><path class="cls-57" d="M9.13,263.86C8,261.94,3.91,265.33,4,261.06a4.29,4.29,0,0,1,3.15-1.2c16.94-1.28,33.91-1.4,50.88-1.25,9.94,0,19.88,0,29.82,0,1.81,0,3.66-.14,5.39.6a1.71,1.71,0,0,1,1,1.4c-1.4,2.19-3.7,1.74-5.73,1.81-4.53.15-9,1.15-13.46,1.54-18.4,1-36.75-1.77-55.15-.82C16.36,263.66,13,267.12,9.13,263.86Z"/><path class="cls-31" d="M2,127c2.15-6.21.41-12.63,1-18.92.2-2-.86-4.31,1-6.06,0,29.11-.37,58.23.17,87.34.26,14.2.89,28.4.71,42.6A99.79,99.79,0,0,1,3,248.29C3.92,207.83,2.44,167.44,2,127Z"/><path class="cls-58" d="M9.14,255.87H12c7.25-3.68,15.21-3.69,22.82-3,11.95,1.1,23.86.4,35.78.73,4.15.12,8.3,0,12.45,0,1.81,0,3.69-.13,5.17,1.28.41,3.66-2.39,3.36-4.52,3.42-6.91.2-13.82,0-20.74.09a27.18,27.18,0,0,0-6.87.45c-11.45.69-22.87-.89-34.31-.46-4.34-1.18-8.34,1.84-12.67,1.07-1.75-.31-3.67,0-5.06-1.49C3.82,252.71,7.72,257.26,9.14,255.87Z"/><path class="cls-59" d="M75.1,264c6.17-1.9,12.37-3.61,18.93-3a6.5,6.5,0,0,1,4.63-1.44c10.11,0,20.22,0,30.33.11,1.5,0,3,.13,4.08,1.42.8,4.87,5.95,1.36,7.87,4.08C119,264.6,97.06,263.66,75.1,264Z"/><path class="cls-60" d="M100,270c-14.7.82-29.33-1.62-44-.93L52.06,269c-.77-1.94,1.11-2.08,2-2.91l46,.06C100.65,267.41,101.09,268.69,100,270Z"/><path class="cls-59" d="M100,270c0-1.28-1-2.56,0-3.84l40.91-.25c-.93,1.71-2.59,1.2-4,1.11-2.3-.16-3.21,1.19-3.9,3Z"/><path class="cls-61" d="M4,258c5.68.55,11.26-.67,16.89-.9,1.33,1.47,3.11.92,4.69.9,9.79-.18,19.55.89,29.34.58,1.1,0,2.85-.88,3,1.39-9.08,0-18.17-.08-27.25.12-4.5.1-8.93-.48-13.48,1.59-4,1.84-8.72-.78-13.16-.62C2.75,260,2.7,259,4,258Z"/><path class="cls-62" d="M54,266.08l-2,2.91c-11.06-.13-22.17.73-33.15-1.24l0-1.67Z"/><path class="cls-63" d="M32.79,270.9c-5.72,0-11.47-.19-16.87,2.23-2.71,2.06-5.25.47-7.83-.36-.71-1.36-2.16-3.49.85-3.17,7.23.76,14.45.14,21.67.45A2.59,2.59,0,0,1,32.79,270.9Z"/><path class="cls-64" d="M9.13,263.86c3.67.73,7.19-.9,10.82-.7-1.13,2.51-10.63,5.2-12.26,3.33C6.28,264.86,7.76,264.26,9.13,263.86Z"/><path class="cls-65" d="M8.08,272.78l7.83.36L18,274q.48.29.33.58c-.1.2-.21.29-.32.29l-3,.24c-1.4,1.19-2.72.81-4-.19-2.64-1.87-6.63.61-8.81-2.73Z"/><path class="cls-66" d="M165.14,84c-.63,7.4,2.17,14.74.42,22.16-1.93,2.35-2.94.28-3.87-.95s-1.05-3-1.57-4.5c-.4-1.28-.46-2.63-.77-3.93a12.65,12.65,0,0,1-.66-4.4c.23-8.24.91-16.51-1.47-24.6A2.75,2.75,0,0,1,158,65a11.5,11.5,0,0,0,2.95-.2c3.18-1.07,4.17.12,4.1,3.28C164.95,73.41,165.1,78.7,165.14,84Z"/><path class="cls-67" d="M158,65c.67,3.22,1.09,6.51,2,9.64,1.66,5.44-.48,10.77-.08,16.16.16,2.14-.06,4.31,1,6.31-1.88,1.24-3.45.52-4.92-.78a3,3,0,0,1-.62-2.05c.48-3-2.12-6.45,1.51-8.85.57-1.35-.48-2.31-.83-3.44-2-8.76-3-17.69-4.71-26.48-.44-2.27-.56-4.67-2.54-6.31A24,24,0,0,0,147,47a1.43,1.43,0,0,1-.1-.75c5-1.18,7.37,1.07,8.24,5.84C155.92,56.43,157,60.72,158,65Z"/><path class="cls-68" d="M163.9,38c-4.68.53-6.53-1.24-7.14-6.24-.65-5.31-1.24-11.26-6.67-14.67q0-1-.06-2.07c3.56-3,4.93-2.83,7.39.81,3.7,5.47,4.54,11.85,5.63,18.14l1.08,1.11Z"/><path class="cls-2" d="M138,335c-.42,1.35-5,1.58-1.13,4.1.87,1.93-.21,4.52,2,6-2.46,1.32-4.25-1.17-6.58-1.13-8.79.15-17.59,0-26.39,0,0-1.8.37-3.68-.68-5.31-2.36-3.66-.91-5.26,2.79-6.81,7.35-3.09,15-3,22.63-2.84a2.07,2.07,0,0,1,2.31,2C134.12,333.1,136.3,333.8,138,335Z"/><path class="cls-69" d="M66,342c.48-5.88,2.31-8.07,8.21-9.16,6.92-1.28,13.89-2.23,20.94-1,5.2.94,8.07,4,8.83,9.45.18,1.28-.3,2.72,1,3.67-.18.78-.12,1.77-.58,2.28-.64.69-1.25-.05-1.28-.71-.21-5.05-4.12-4.43-7.23-4.5C86,341.86,76,341,66,342Z"/><path class="cls-70" d="M58,63c5.1.18,10.22-.22,15.28,1,1.5.35,2.93.4,3.75,1.91-1.77,2-4.2,1.7-6.46,1.71-6.44.06-12.89.11-19.33,0-9.51-.54-19,.3-28.56-.44a3.62,3.62,0,0,1-1.64-1A27,27,0,0,1,24,47.1c-.21,3.74-1.51,7.36-1,11.18.17,1.4.13,2.68,2,2.6,5.66.1,11.35-2.29,17,.15l2,.17C48.55,62.5,53.61,60,58,63Z"/><path class="cls-71" d="M42,61c-5.67.81-11.34.41-17-.15,1.73-1.9,6.37.73,6.43-4.27,0-.8,2.91.87,4.57.42C37.88,58.58,41.14,58,42,61Z"/><path class="cls-72" d="M9.2,83.85q37.93,0,75.86.09c2,0,4,.13,6,.2a1.23,1.23,0,0,1-.68,1.6c-2.21,1-4.56.69-6.86.68-18.71-.07-37.42.29-56.13,0-5.78-.1-11.56.11-17.34.05-1.81,0-3.65.09-5.29-.94l-.62-.73C5.61,83.5,7.55,84.42,9.2,83.85Z"/><path class="cls-73" d="M4.8,90.87c.36-2.14-2.4-3.42-1.55-5.69a1.4,1.4,0,0,0,.85-.34l.1.23L4,85.24c3.2,2.06,7,1.06,10.43,2.11a1.88,1.88,0,0,1,.9,1.12,1.79,1.79,0,0,1-.65,1.3C12.1,91.69,9,91.1,6.08,91.55A1.87,1.87,0,0,1,4.8,90.87Z"/><path class="cls-74" d="M11,274.92l4,.19c3.45,2.7,2.45,6.63,2.69,10.16A14.59,14.59,0,0,1,17,289C12.86,285.24,12.72,279.76,11,274.92Z"/><path class="cls-75" d="M21,66.18l1,0a254.12,254.12,0,0,0,29,0l26-.33h3c1.32-.93,2.84-.84,4.33-.83,8.29.06,16.57-.17,24.85-.5A15.4,15.4,0,0,1,116,65.87c6,.05,11.94,0,17.9.18,2.29.05,3.87-.55,4.28-3,2.11.12,2.46,2.21,2.28,3.24-.54,3.05,1,5.3,2,7.84,1.69,4.2-2.62,6.37-3.48,9.73-1.64,1.67-3.3,1.64-5,.08s-3.8-.87-5.7-.88c-36.21,0-72.43-.14-108.64.09-5.13,0-7-1.49-6.25-6.43.67-4.55.92-9.22,4.12-12.73C20,63,17.84,68.38,21,66.18Z"/><path class="cls-76" d="M134,83.93l5-.08,1.78-.06c3.21-.67,6.52.18,9.74-.78a2.81,2.81,0,0,1,3.66,1.64c-.94,1.65-2.57,1.66-4.16,1.75-3.12,0-6.23,0-9.35,0q-12.86,0-25.72,0c-6.13,0-12.26,0-18.4,0-1.95,0-4,.28-5.53-1.51q0-.38,0-.76Z"/><path class="cls-77" d="M171,157l.37-1c4.53,2.26,1.2,7.12,3.34,10.25.63.92.28,2.52.37,3.81-1.81.82-1.57-2.48-3.38-1.67a1.66,1.66,0,0,1-1.11-.53c-.87-2.2-2.08-3.92-4.83-3.55a22.41,22.41,0,0,1-4.29-.34c-1.4-.47-3.13-.16-4.08-1.7a10,10,0,0,1-.39-6.2c.44-2,1.48-2.94,3.26-1,1.12,3.38,3.09,4.88,6.53,2.81C168.09,157.06,169.75,158.24,171,157Z"/><path class="cls-78" d="M171.84,168.22c.27-.89-.12-2.39,1-2.53,1.48-.18.86,1.4,1.19,2.2s.68,1.44,1,2.16c1.78,4.81.58,9.85,1.1,14.76-.29,2.32-.52,4.72-3.93,3.14-1.69-1.3-1.4-3.08-1.2-4.85a15.32,15.32,0,0,0,.18-7.79C170.67,172.92,170.09,170.45,171.84,168.22Z"/><path class="cls-79" d="M167.94,201.93c-1.13,1.26-.78,2.81-.81,4.28q-.6,27.34-1.18,54.68c0,1.46.31,3-.86,4.26-1.76-1.5-.32-3.36-.56-5.09.14-.59-1.14-.21-.49-.07.23,0,.28.14.3.2a1.32,1.32,0,0,1-.36,1.71c-2,1.18-2.55-.27-3.08-1.75a16.32,16.32,0,0,1-.28-4.11c-.15-5.9.66-11.95-3.41-17.14-1-1.27-.54-3.23-.55-4.89q0-10.47,0-20.94c0-1-.32-2.19.14-3,2.84-4.72,0-9.07-.72-13.54-.61-1.35-1.52-2.61-1.36-4.2,1.79-2.06,3.38.33,5.09.23a25.2,25.2,0,0,0,7,1.49,2.94,2.94,0,0,1,1.9,1.39C168.93,197.67,169.88,200,167.94,201.93Z"/><path class="cls-80" d="M162,260c1.42,1.33,1.42,1.33,3.09-1.7,0,2.84,0,4.84,0,6.85.22,8.67-.32,17.31-.92,25.95-1,9.71-1.6,19.46-4.12,28.94-2.84.35-4.38-.64-4-3.77.11-1-.07-2.18-1.14-2.47-1.55-.42-1.67,1.15-2.23,2a3,3,0,0,0-.41.89c-.38,1.63-.87,3.53-2.72,3.61s-1.07-2.54-2.39-3.32L146,309c2.49-1.59,6.28-.66,7.85-4a262.36,262.36,0,0,1,5.23-26.07,13.32,13.32,0,0,0,.11-5.9c.09-3.28,1.07-6.47.72-9.82C159.79,261.91,159.79,260.1,162,260Z"/><path class="cls-81" d="M167.94,201.93l.16-6.78c.4-.9.77-1.85,2-.91-.46,4.61,2.77,9.25-.08,13.84C169.42,206,167.36,204.41,167.94,201.93Z"/><path class="cls-82" d="M171.11,150.82c-2.43-.94-5-1.57-7.24-2.9-3.13-1.89-2.79.38-3.08,2.13-2.39-.68-1.86-2.74-2.1-4.43a82,82,0,0,0,.91-13.74c-.05-1.64.05-3.32,1.35-4.6l7.1-.14a4.9,4.9,0,0,1,2,3.79c0,5.08,1.05,10.12.67,15.16.9-.57,1.48-1.87,2.81-1.26,1.13.52,1,1.45.57,2.38C175.24,150.18,174.27,151.43,171.11,150.82Z"/><path class="cls-83" d="M161,127.28c.11,6.35.28,12.7-1.09,19-2,1.75-2.83.14-2.9-1.34-.56-13.71-.66-27.42,0-41.12.11-2.08,1.84-3,4-2.75,2.08,1.21,0,6.16,4.56,5.12l.26,1.71c-5.78-.1-5.05,3.87-4.91,7.64S161,123.35,161,127.28Z"/><path class="cls-84" d="M174.15,147.21c-.49-1.1-.88-3.32-2.05-.45-.47,1.15-.61,2.22-2.14,2.11,1-7.28-.45-14.56.07-21.84l2.08-.07C175.93,133.39,176.21,140.18,174.15,147.21Z"/><path class="cls-85" d="M170,127a48,48,0,0,1-.07,21.84c-1.12-.28-1.69-.91-1.33-2.12,2-6.6.19-13.09-.57-19.61Z"/><path class="cls-86" d="M40,312.07q.06.48.11,1c.09,1.87-1,1.07-1.72.68C37.07,313,36.5,311.47,35,311c-.14-.68-1.08-1.33-.06-2C38.67,306.73,38.57,310.62,40,312.07Z"/><path class="cls-40" d="M35,311c2.69-1.85,2.44,3.68,5.05,2,1.1.73.92,1.87,1,2.95a.71.71,0,0,1-1.1-.09C38.22,314.35,35.61,313.7,35,311Z"/><path class="cls-87" d="M40,315.88l1.1.1,1,6.09C40.9,320.15,37,319.16,40,315.88Z"/><path class="cls-73" d="M20,104.94c1.08-1.61,3.26-.29,4.92-2.18-6.22-1.6-12.22-.13-18.05-.88-3.45-4.31-3.45-4.31-.86-7.8,2.36-2.44,5.63-1.59,8.41-2,8.05-1.08,16.17-2.83,24.32-.52.68,3.5-2.2,2.45-3.74,2.72-3.38.59-7-.69-10.24,1.11-4.85,1.24-9.9,1.3-13.82,2.64,2.72.4,6.67-1.3,10.26.77,6.41,1.7,12.93.39,19.37.79,2,.12,4-.15,5.95.48a2.52,2.52,0,0,1,2,2.5c0,1.13-.67,2.21-1.64,2.22C37.9,104.87,28.93,108.65,20,104.94Z"/><path class="cls-88" d="M39,92C27.91,91.25,17,93.62,6,94.08c-2.35-.37-2.72-1.44-1.15-3.21L6,91c2.88-1.2,6.42.67,9-1.94h0c1.84-1.38,3.87-.1,5.79-.41,6.44.18,12.94-.81,19.31.74,1.2.29,3.71-.24,3,2.12C42.44,93.57,40.56,93.11,39,92Z"/><path class="cls-30" d="M163.06,34l-.21,1.93a50.47,50.47,0,0,0-5-17.92c-1.69-3.57-4-5.12-7.84-3,.66-2.15-1.89-5.87,2.93-6-.3,1.7.82,2.37,2.1,2.94,4.17,2.54,4.83,7.25,6.87,11.11C162.25,26.72,163.59,30.24,163.06,34Z"/><path class="cls-89" d="M170.09,194.24l-2,.91-2.08-.08c-1.27-1.81-2.06-4.14-4.8-4.33-5.43-2-6-3.1-4.68-8.59,1.58-1.59,3.53-1.56,5.49-1.1,1.46.34,2.42.51,1.17-1.37a4.31,4.31,0,0,1,4.55-.25c1.06.7,1.24,1.88,1.62,3.34.68-2.45-.08-5,2.13-7.07,1.67,2.56,1,5,.56,7.44l.16,4.82Z"/><path class="cls-90" d="M155.06,12c-2.81.53-2.31-1.31-2.1-2.94.27-1.35-.55-3,1-4a15.65,15.65,0,0,0,4.06,7C157.07,11.83,156.08,10.39,155.06,12Z"/><path class="cls-91" d="M161,101c-1.91,1.1-3.08,2.33-3,5,.18,12.46,0,24.92.1,37.37,0,1.15-1.07,3.37,1.81,2.88l.92,3.81.12,1.78c-1,1.22.59,3.09-1.05,4.15-.6.15-1.27-2.36-1.65-.16a44.39,44.39,0,0,0-.13,7.25l-.56.73a1.38,1.38,0,0,1-2.26-.53c-1-2.38-.75-4.91-.76-7.4,0-15.17,0-30.33-.05-45.5,0-2.4.58-5.06-1.66-7-2.26-1.4-5.08-2.3-5.32-5.62a1.89,1.89,0,0,1,1.53-1.5,4.37,4.37,0,0,1,1.44,0,5.1,5.1,0,0,1,1.29.59c1.46.95,2.83,1.27,3.91-.54l.49-.44,4.83,1.23Q161,99.1,161,101Z"/><path class="cls-92" d="M159.86,156c.1-1.45-.16-3,1.06-4.14.19.94.53,2.65,1.2,2.37,3.85-1.55,6.15,1.14,8.85,2.81-2.34,2.19-5.39,2.8-8.33,3.12S161,157.29,159.86,156Z"/><path class="cls-93" d="M25,296c8.55,2.1,16.79,3.14,25.93,1.44,5.17-1,11.9-.06,17.9,1.23,9.06,1.95,18.26,2.56,27.43-.06,2.74-.78,5.14,1.6,8.11,1.52a299.68,299.68,0,0,1,30.3.49c1.94.14,2.16,1.05,2.26,2.47-6.94,1-13.84-.22-20.72-.67-3.63-.24-7.36-.63-10.75.09-5,1-9.92.42-14.68,0a230.4,230.4,0,0,0-23.31-.25c-4.11.09-8.22-.19-12.33-.29-1.84,0-3.64-.11-5.09,1.42-1.05,1.11-2.37,2.49-2.49-.62,0-.18-.51-.52-.73-.48-6.37,1.1-12.17-2.25-18.4-2.33-2.29,0-3.08,1.6-4.24,2.94l-1-4C24.12,298.18,22.48,295.8,25,296Z"/><path class="cls-94" d="M25,296,23.19,299l-2-6.23c-.21-3.91,2.75-2.48,4.51-2.46q49.29.61,98.58,1.38c3.65.05,7.3.07,11,.13,1.49,0,3.16-.13,2.95,2.2-13.39,0-26.77,0-40.16-.34-18.25-.52-36.52-.45-54.79-.59-4.8,0-9.46-1.36-14.32-1.11C25.87,292.1,24.65,293.05,25,296Z"/><path class="cls-6" d="M100,50a66.47,66.47,0,0,1-7.79,1c-10.6.1-21.14.85-31.68,1.91-7.79.78-10.49-2.25-9.46-10,.34-2.6,1.59-4.94,1.77-7.66C53,33.43,54.64,32,57.15,32a275.18,275.18,0,0,1,34.19,1.8C93.28,34,96.71,31.47,97,36,99.24,40.44,101.23,44.89,100,50Z"/><path class="cls-71" d="M100,50c-.88-4.68-2.86-9.13-3-14a6.87,6.87,0,0,0,4-1c0,5.08,1.05,10,2,15,4,4.07,9.2,4.07,14.36,3.94,6.55-.16,13.13.4,19.63-.91-.23,2,.62,4.24-1,6.06-5.59-.41-11.2.6-16.77-.25A5.77,5.77,0,0,0,114,60.93L107,61c-1.61-1.58-3.93-.86-5.82-1.77A2.09,2.09,0,0,0,98.1,61.1c-5.21,1.06-10.52-.67-15.64.3C74.33,63,66,60.94,58,63c-4.57-1.3-9.71,1.79-14-1.8l.07-.31c1.89-1.39,4.29-.91,6.41-1.69-2.53.15-5,1.62-7.44-.14l-1.32-3.91c16.38,0,32.55-1.5,48.79-1.23C93.91,54,98.32,54.89,100,50Z"/><path class="cls-95" d="M43,59.05c2.93-.29,5.85-.64,8.79-.83a1.34,1.34,0,0,1,1.52,1.53,1.12,1.12,0,0,1-1.49.94c-2.65-.93-5.18,1-7.8.2Z"/><path class="cls-96" d="M137,53a16,16,0,0,1-9.36,2.17c-5.67-.49-11.43.07-17.13-.28-3.16-.2-6.8-.56-7.5-4.91,8.3,2.55,16.61-.07,24.91-.1,3,0,6.05,2.16,9.08.13Q137,51.54,137,53Z"/><path class="cls-97" d="M153.93,84.8c-4.27-1.79-8.8-.15-13.13-1,2.35-1.9,6.82.64,7.64-1.87,1.12-3.4.26-7.48.06-11.26-.44-7.89-1-15.78-1.52-23.67a2.2,2.2,0,0,1,2.15,1.14c3.4,9.84,4.23,20.16,4.77,30.39.16,3.06,1.24,3.57,3.11,4.49,1.63.3,2.47.87.73,2.26C156.34,86.14,155,86.2,153.93,84.8Z"/><path class="cls-70" d="M116,65.87H80c.63-2.71,2.85-1.82,4.47-1.79,8,.13,16-.5,24-1C111.41,62.87,114.17,63.17,116,65.87Z"/><path class="cls-96" d="M114,60.93c.41-2.15,1.13-3.37,3.91-3.14,5.14.42,10.33.2,15.5.24a2.92,2.92,0,0,1,2.62,1.06c-2.81,2-6,.67-9,1C122.75,60.46,118.4,60.65,114,60.93Z"/><path class="cls-98" d="M98.1,61.1c-.93-.24-2.24-.4-1.52-1.78.91-1.74,4.07-1.75,4.24-1.47,1.45,2.49,5.86-1.07,6.18,3.12C104,62.1,101,59.91,98.1,61.1Z"/><path class="cls-99" d="M160.11,272.93c1.31,1.2,1.15,2.88.8,4.21-2.49,9.26-3.9,18.79-7,27.88-.66-7.82,1.1-15.43,2.49-23,.78-4.24-.49-5-4.08-5-9.52,0-19,1.07-28.55.74-20.32-.71-40.66-.47-61-.78-4.24-.06-8.6,1-12.74-.82,3.86-2.28,8.09-.6,12.11-1.13,8-.42,16-.46,24-.43,18.94.13,37.88-.29,56.81.42a24.21,24.21,0,0,0,5.46-.33,14.14,14.14,0,0,0,4-.48,35.6,35.6,0,0,1,4.94-1.45A3.89,3.89,0,0,1,160.11,272.93Z"/><path class="cls-100" d="M18,274.87q0-.44,0-.87l39,.17q.41,1.09-.73,1.31c-7.8,0-15.6.3-23.4-.18Z"/><path class="cls-101" d="M32.88,275.29,57,275c1.8-.27,3.79-1.65,5.09.9L50,276.16C44.31,275.49,38.53,276.78,32.88,275.29Z"/><path class="cls-102" d="M148.15,97.11c-.16,2.77,2.61,3.22,3.84,4.89l-.49.68c-.42.38-.86.73-1.31,1.08-1.17,1.65-.77,3.54-.77,5.34,0,19.81,0,39.62,0,59.43,0,27.14,0,54.28,0,81.42,0,2.42.61,5.06-1.43,7.11-1.58-1.5-.93-3.45-.93-5.21-.06-12.33.64-24.7-.2-37-1.13-16.62,1.24-33.2.07-49.74-1.36-19.13-.56-38.25-.91-57.37,0-1.34.66-3.43-1.65-3.46a3.09,3.09,0,0,0-3.14,3.25c.13,8.53-2.45,17-1.11,25.5a87.2,87.2,0,0,1,.52,20.1c-.85,11.12.11,22.24-1,33.31,0,.22-.46.41-1.16,1a35.58,35.58,0,0,1-.42-3.76c0-12.5,0-25-.05-37.49,0-1.76.61-3.7-.91-5.23a3.65,3.65,0,0,1-1.29-2.4c-.45-11.37.09-22.75-.3-34.11-.12-1.86,1.29-1.85,2.18-2a11.85,11.85,0,0,1-2.06-.05c-2.42-.3-5.32.12-5.32-3.67,1-2.64,3-3,5.4-2.44l.46.11c0-.34-.38-.24-.49-.46a3,3,0,0,1-.25-1.8,5.07,5.07,0,0,1,1.22-2.31,6.32,6.32,0,0,0,3-2.39c2.84.07,5.06.18,4.08,4.38C143,96.82,147.25,95.1,148.15,97.11Z"/><path class="cls-103" d="M134.86,254l-.76,1.13a4.62,4.62,0,0,1-3.64.8c-8.27-1-16.59,0-24.86-.5-22.18-1.21-44.41-.4-66.57-1.49-2.24-1.91-4.59-2.64-7.15-.53a7.41,7.41,0,0,1-2.64,0c-2.78-2.74-5.48.16-8.22.12a3.9,3.9,0,0,1-2.13-.37,3.22,3.22,0,0,1,1-3.5,4.64,4.64,0,0,1,1.46-.66,15.29,15.29,0,0,1,3.22-.3c3.8-.17,7.63.39,11.39-.56a84.11,84.11,0,0,0,13.21.08c4.57.82,9.17.38,13.77.36a10.15,10.15,0,0,1,1.81,0c7.47.09,14.93,0,22.39,0,14.2-.21,28.41.19,42.6-.18,1.86-.58,1.85-2.13,1.85-3.64,0-22.89.18-45.77-.11-68.66a5,5,0,0,0-.35-1.45,10.74,10.74,0,0,1-.13-4.4c1.14-4.91.75-9.86.33-14.81a6.46,6.46,0,0,1,0-1.66c.51-4.1.76-8.19-.36-12.25a25.27,25.27,0,0,1,.08-8.93c1.14-4.21.28-8.53.68-12.78.13-1.43.08-3.52,1.76-3.57s1.81,2.06,1.86,3.48c.21,5.76.05,11.52.11,17.28.12,6.72,0,13.43-.42,20.14C134.91,189.44,135.22,221.71,134.86,254Z"/><path class="cls-101" d="M148,257.06q0-44.51.06-89c3.29,1.13,2.33,4,2.34,6.25.1,18.64,0,37.27.07,55.91,0,8-.17,16,.13,23.94a4.43,4.43,0,0,0,1.2,2,2.68,2.68,0,0,1,.6,1.32c-1.88,2.44-.84,4.84.12,7.25a3.64,3.64,0,0,1-.7,1.14c-1.78,1.27-1,3.12-1.07,4.77-.32,2,2,2.73,2.15,4.52-.68,1.2-1.75,1.12-2.88.87-1.72-1-3.59-.48-5.38-.48q-29.19-.06-58.38,0c-5.4,0-10.81,0-16.22,0-1.09,0-2.81.8-3-1.38l-2.93-2.23h59.15c3.29-.35,6.58-.81,9.83.26,4,2.73,8.6,1.82,12.92,1.44,1.45-.13,1.28-2.8,1.39-4.39C147.66,265.13,147.79,261.09,148,257.06Z"/><path class="cls-104" d="M134.86,254c-1-.88-.84-2.1-.84-3.24q0-47,.09-93.91c1.18-3.82-.38-7.93,1.34-12.89a16.2,16.2,0,0,1,.54,10.13q0,47.16-.09,94.33C135.9,250.26,136.82,252.43,134.86,254Z"/><path class="cls-105" d="M130.84,254.92l3.26.18c.16,2.61,2.18,1.9,3.64,1.94,2.93.08.56,1.16.39,1.82-1.44,1.64-3.39,1.12-5.16,1.14-13.32.14-26.62-.27-39.93-.87-10.14-.46-20.32-.09-30.48-.11-2.22,0-4.47.1-6.52-1,2.53-1.92,5.45-.82,8.16-.9,6.46-.19,12.93,0,19.39-.1,1.66,0,3.84.82,4.46-1.85,3-1.26,6.24-.56,9.34-.53C108.55,254.7,119.7,254.07,130.84,254.92Z"/><path class="cls-106" d="M62,258.07c14.12,0,28.26-.61,42.34.16,11.27.62,22.51.81,33.77.63.7.38,1.85.63,2,1.17.39,1.31-.88,1-1.58,1-1.83.06-3.66,0-5.49,0L94,261q0-.49,0-1c-9.33-1.17-18.7-.13-28-.58C64.66,259.39,62.52,260.79,62,258.07Z"/><path class="cls-107" d="M136,154.07v-9.3c-1.87,4.83.66,8.79-1.88,12.05q0-9.76,0-19.51c1.27-1.09,1.47.42,2.1.87a7.75,7.75,0,0,0,.77.85q0,1,.08,2C136.34,145.32,138.26,149.87,136,154.07Z"/><path class="cls-108" d="M133.07,272.12l-9.84-.26c5.58-1.19,11.16-1.53,16.72.1Z"/><path class="cls-109" d="M20,104.94c8.3.8,16.5-1.08,24.78-.95,1.19,0,3,.44,2.91-1.63-.11-1.59-1.71-1.26-2.8-1.27-6.8-.06-13.61,0-20.41-.12-1.64,0-3.87.9-4.38-1.9a3.8,3.8,0,0,1,2.49-1.29c8.73-.31,17.46-.44,26.2-.21,13.09-1,26.19-1.17,39.31-.91,2.11,0,4.34-.36,6.11,1.33,0,2.79-2.11,2.52-3.92,2.52-7.66,0-15.32.06-23,0,14.94.1,29.89-.08,44.83,0a18.58,18.58,0,0,1,5.45.56c1.24.47,2.35,1.08,2.64,2.54-1.59,2.4-4.11,1.79-6.33,1.81-12.75.08-25.49,0-38.24,0-2.34,0-4.64,0-6.67,1.42-5.24,1.15-10.56.56-15.84.54-11.42,0-22.85.46-34.27-.29a4.29,4.29,0,0,1-1.64-1C17.74,104.78,19,105.16,20,104.94Z"/><path class="cls-110" d="M17.2,106.08q.41,0,.83,0c.62.72,1.54,1.06,2.17,1.76A3.59,3.59,0,0,1,21,109.6c.19,1.91-.71,4.26,2.15,5.05.65,17.8.52,35.58,0,53.37a23.25,23.25,0,0,0-.75,7.4q0,33.66,0,67.33c0,2.44.51,5-1.25,7.19l-1,.1c-1.77-1.52-1.53-3.63-1.47-5.57.51-16.46-1.81-32.86-.68-49.35,1.28-18.6.29-37.25.53-49.89-.1,10.05.12,26.1-.05,42.14q-.32,1.15-1.38.6Q17,173,16.95,158,17.07,132,17.2,106.08Z"/><path class="cls-111" d="M17.06,188a7.6,7.6,0,0,1,.77.22c1,.92.68,2.16.66,3.27-.33,20.51.89,41,.51,61.52l2.08,0c2.65-.47,5.3-1.71,8,0l3,0a4,4,0,0,1,5,0c29.34,2.16,58.73.53,88.09,1.09,1.91,0,4-.7,5.72.85l-42.78.21c-11.29,0-22.59-.2-33.89-.11s-22.39-1.45-33.59-.51c-2.85.24-5.5,2.21-8.58,1.36a7,7,0,0,0,1-4.29c-.36-8.65,1.14-17.2,1.43-25.8.15-4.42,0-8.82.24-13.28C15.22,204.28,18.24,196.31,17.06,188Z"/><path class="cls-112" d="M67,274.09c4.42,2,9.09.46,13.62.9,1.8.18,3.63.13,5.44.18q.43.26.27.49c-.1.15-.2.23-.3.23l-24,0c-1.51-1.36-3.41-.5-5.09-.9q0-.41,0-.82Z"/><path class="cls-113" d="M62,258.07c1.85,1.71,4.12.89,6.18.91,8.79.1,17.58,0,26.37.06a.44.44,0,0,1,.33.26c.1.7-.49.6-.89.73L57.94,260c-1.51-1.57-3.45-.88-5.2-.9-10.13-.07-20.27,0-30.4-.07-1.12,0-3.71.78-1.41-1.9,11.73-.83,23.38,1.6,35.12.89Z"/><path class="cls-114" d="M157,83h-4.54c1-12-3-23.26-3.34-34.88,4.27,1.94,3.22,6.14,3.83,9.49C154.49,66.05,156.35,74.44,157,83Z"/><path class="cls-115" d="M153.93,84.8l3.8.47c-.05,2.36-4.2,4.66-.09,7.07L156,94a4,4,0,0,1-3.64,1,4.48,4.48,0,0,1-3.66-3.4,2.32,2.32,0,0,1,.52-1.24c1.78-1.45-1.15-3.73.89-5.14Z"/><path class="cls-91" d="M152,94.09,156,94l.11,1.9-.24.3c-1.38,1.16-2.85,1.88-4.66,1l-.29-.31C150.45,95.66,151.09,94.83,152,94.09Z"/><path class="cls-10" d="M51,66.2a104.17,104.17,0,0,1-29,0Z"/><path class="cls-116" d="M138.92,90.09c1.8,3-1,1.6-1.94,2-1.72,1.49-3.92,1.19-5.94,1.58-9,.31-18.08-.41-27.13-.16q-18.71.15-37.42-.07c-3.51,0-6.68,2.38-10.26,1.09-5.83-.23-11.67-.57-17.3,1.52a46,46,0,0,1-9.8.37c-1.82,0-3.69.1-5.1-1.42.5-2.78,2.73-1.71,4.36-2,3.52-.54,7.25,1.11,10.62-1l3.35-.26C35,89.38,27.48,90.33,20,90c-1.35-2.52-1.33-2.54,3.46-3.87,3.27-.07,6.47.73,9.35.38C31.42,85.38,28.4,88.24,27,85.2l56.1-.15c2.65,0,5.29-.1,7.94-.16l24.06.32c6.28,1,12.64-.32,18.93.68,0,2.31-1.8,2.14-3.25,2.5-29.53.23-59.06,0-88.59.22,7.62.62,15.2,1.31,23,.38,10.42-1.25,20.93-.25,31.4-.4q19-.26,38,0C136.1,88.73,137.75,88.69,138.92,90.09Z"/><path class="cls-117" d="M27,85.2c2,1.62,4.56.18,6.74,1.84H23c-2.71,0-5.14,2.25-8,1-3.74-.66-8.27,1.75-11-2.82Z"/><path class="cls-118" d="M15,88.06c2.7-.06,5.22-1.57,8-1-.05,1.94-4.41-.46-3,3l-5-1Q15,88.56,15,88.06Z"/><path class="cls-118" d="M15,89C12.67,92.65,9,90.33,6,91,8.78,89.17,12.21,90.52,15,89Z"/><path class="cls-119" d="M134.12,86.12c-6.32-.64-12.75.94-19-.9,8.62,0,17.24-.81,25.86,0a1,1,0,0,1-.11,1.28C138.51,88.06,136.28,87.68,134.12,86.12Z"/><path class="cls-120" d="M140.94,85.95q0-.36,0-.71h9.16a3.6,3.6,0,0,0,1.14,3c1.52,1.6.81,2.61-1.29,2.74-1-.61-2.12-1-2.76-2C145.93,86.29,142.46,88.13,140.94,85.95Z"/><path class="cls-121" d="M160.94,163l5.08.17c.08,2.17-2.7,1.74-3.18,3.78.15,1.69,2.29,1,3.27,2.1,1.5,1.62-1.82,1.88-.6,3.18a3.86,3.86,0,0,1,.36,1.23c-.31,1.83.38,3.95-1.53,5.31-2.87.23-5.65,2.12-8.61.42-1.61-2.66-1.06-5.37-.23-8.09C157.12,168.25,156.67,164,160.94,163Z"/><path class="cls-122" d="M165.07,173q0-.45,0-.89c.9-.89,2.26-1.25,2.52-2.87.34-2.2,2-1.8,3.48-1.31a3.31,3.31,0,0,1,.77.3c-.21,5,2.41,9.91.22,14.92V176c-1.89,4.13.16,7.84-2.74,10.52-2.1-1.93-.95-4.38-1.33-6.48-.65-.88-2-1.05-2.28-2.3C166,176.07,167,174.33,165.07,173Z"/><path class="cls-123" d="M171.07,167.92c-.2,1.33-2.78-.79-2.43,1.88.3,2.26-1.93,2.18-3.57,2.3-3.63-1.37,2.36-1.21.36-2.32-1.21-1.93-5.21.68-5-2.35.19-2.35,3.4-3.18,5.56-4.28C170.14,162.17,171.21,164.41,171.07,167.92Z"/><path class="cls-124" d="M160.94,163c-3,1.86-2.39,5.5-4,8a.9.9,0,0,1-1.35-.23c-1.64-3.36.8-5.44,2.43-7.78l.07,0C159,162.82,159.94,161.3,160.94,163Z"/><path class="cls-125" d="M155.2,191.88a5.42,5.42,0,0,0,1.74,3.18,61.67,61.67,0,0,1,.67,13.66c-.4,6.45-.21,12.94-.07,19.41.12,5-.31,10,1.51,15.11a16,16,0,0,1-.86,13.06c-1.89,1.68-3.89,2.48-6.2.76h0c-1.72-2-1.35-4.38-1.37-6.68-.17-18.83.2-37.66-.12-56.49,0-1.93-1.32-5.75,3.28-5.31A3.6,3.6,0,0,1,155.2,191.88Z"/><path class="cls-126" d="M152,257.05a9.68,9.68,0,0,0,5.06-1c.77.89,1.61,1.75.78,3a9.89,9.89,0,0,1-3.08,1.25,4.78,4.78,0,0,0,3.43-1.7c.09-1.39-.26-3,1.2-3.85,1.28-.75,2,.22,2.59,1.23q0,2,0,3.93c-2,4.11.44,8.87-1.88,12.93l-2.44,1c-1.44-3.93-5.42-1.28-7.72-3,.23-2-2.72-4.58,1.2-5.78a3.23,3.23,0,0,0,3,1.33c-.52-.85-1.8-.6-2.23-1.55C149.07,262.33,148.79,259.69,152,257.05Z"/><path class="cls-127" d="M162,256.07c-4-2.49-2.25,2.64-4.07,3.06h0l-.86-3c2-3.6,1.08-7.55.73-11.19-1.48-15.45-.33-30.91-.73-46.35,0-1.16-.07-2.33-.11-3.49,2.13,2.93,0,7.56,3.86,9.81.15.09.19.71,0,.94-6.24,10.13-1.16,21.24-2.77,31.77C162.55,243.07,162.23,249.58,162,256.07Z"/><path class="cls-128" d="M155.2,191.88l-1-1.87c-.45-.54-.13-1.36-.51-1.82-3.78-4.62-2.55-9.36-.45-14.15.69-1.22.61-3.17,2.78-3h.93c-1.58,2.57-.63,5.35-.67,8.05.37.45,1,.64,1.26,1.22a1.86,1.86,0,0,1-.3,1.69c-.63,4-.18,7.34,4.77,8-.87,1.07-2.23,1.68-2.82,3C157.24,194.76,156.73,191.54,155.2,191.88Z"/><path class="cls-129" d="M159.17,193c-2.15-3.91.93-2.89,2.82-3,4.22-.59,4.24,2.15,4,5.08C163.48,195.21,161.06,195,159.17,193Z"/><path class="cls-88" d="M24,95l5,.06c1.63,1.95,2.12,3.38-1.33,3.48-1.88.06-3.84-.57-5.64.48l-2,0c-4,0-8,0-11.93,0-1,0-2.64.44-2.56-1.39a1.77,1.77,0,0,1,2.22-1.51C13.37,97.77,18.5,93.57,24,95Z"/><path class="cls-130" d="M156.93,180.17c-.55-.16-.83-.49-.66-1.09,2.89-.56,5.76-1.36,8.75-1.07a1.51,1.51,0,0,0,1,0,1.8,1.8,0,0,1,2,2l-5,0C161,181.23,159,181.93,156.93,180.17Z"/><path class="cls-122" d="M156.93,180.17l6.08-.11,2.92,1.94h-8.71Z"/><path class="cls-131" d="M152,102c3.9-.6,4.18,1.66,4.16,4.75-.12,19.09-.1,38.18-.12,57.26.23,2.2-1.09,3.76-2.22,5.4-4,1.05-3.3-2.14-3.27-4.06.22-15.75,0-31.49.08-47.24,0-3.65,0-7.29,0-10.94,0-1.83,0-3.67,1.38-5.14Z"/><path class="cls-132" d="M148,89a3.15,3.15,0,0,1,2,2,3.79,3.79,0,0,1-.89.08c-1,1.13-.39,2,.4,2.93s1.72,1.68.41,2.83l-1.75.27-2-.06c-5.27-.17-5.52-.63-3-5.83l-4.25-1.14-3.75-.14c.59-3.2,3.41-1.4,5-2.25C142.91,87.6,145.66,87.12,148,89Z"/><path class="cls-133" d="M154,168l2-4,2-1c-.64,2.68-2.41,5.07-2,8l-1.78,3.16C152,172.21,153.33,170.11,154,168Z"/><path class="cls-66" d="M149.89,96.84c.05-1.39-1.23-1.74-1.92-2.57-1.32-1.56-1.57-2.94,1.11-3.2a5.18,5.18,0,0,0,2.87,3l-1,2.82Z"/><path class="cls-134" d="M151.21,97.21c1.55-.35,3-1.37,4.66-1,.55.91,1.75,2.22,0,2.61C154.27,99.18,151.82,100.29,151.21,97.21Z"/><path class="cls-135" d="M86.05,275.9a4.33,4.33,0,0,1,0-.72c19.58-.05,39.16-.13,58.74-.13,1.73,0,3.68-.55,5.18,1Z"/><path class="cls-136" d="M150,271c1.41-.32,2.81-.75,4.24-.93,3-.38,4.37.79,3.48,3.91l-4.8,1.2C151.79,273.84,148.84,273.82,150,271Z"/><path class="cls-126" d="M154,168l.23,6.17c-3,5.27-.83,10.55,0,15.82-.72.47-1.78-2.64-2.1,0a75.38,75.38,0,0,0-.1,8.85q0,29.07,0,58.13l-1.89-.06c-1.1-1.69-.54-3.57-.54-5.36,0-26,.37-52-.15-77.94-.44-21.82-.18-43.62-.36-65.43,0-2.24-.69-4.79,2-6.24h1c-.42,21.48.5,43-.34,64.44C151.64,167.32,151.16,170.64,154,168Z"/><path class="cls-137" d="M39,95c5.4-3.09,11.32-1.67,17-2,.9.75,1.89,1.58,3.09,1.37,14.71-2.56,29.4.58,44.1.13,9.23-.27,18.47-.18,27.7,0,1.82,0,3.65.07,5.17,1.3,1.14.34,2.7-.44,3.54,1.6-3,.11-6-1.43-8.64.54a6.66,6.66,0,0,1-4.61,1.53q-13.9.19-27.8,0c-1.65,0-3.33-.15-4.58-1.51-9.91.39-19.84.09-29.76.43-5,.17-10.19,1.65-15.3.5.83-3.15,3.76-.28,4.93-1.54-1.46-.47-3.64,1.32-4.72-1.16-.26-.59,1.06-.82,1.17-.76C47,95.85,42.86,97.81,39,95Z"/><path class="cls-138" d="M151,102c-1.38,2.11-1,4.49-1,6.79.26,25.28.19,50.56.25,75.83q.08,36.16-.14,72.34c-1.91-1.56-1.05-3.71-1.06-5.59-.06-25.9,0-51.8-.07-77.7,0-1.9.74-4-.94-5.68-.07-21-.06-42-.31-63.06C147.69,102,149.15,102.14,151,102Z"/><path class="cls-139" d="M94,98.06l37,0c-.52,4.26,3.67,2.14,5.1,3.76-6,3-12,1.92-18,.28-17.38.52-34.67-1.79-52.05-2.08H88.83C90.8,100,92.92,100.36,94,98.06Z"/><path class="cls-140" d="M136.12,95.9,103,96c-.73-.73-2.47-.32-2.37-1.95.14-2.26,2.38-1,3.37-1.9,7.78.25,15.59-.83,23.35.7,1.21.24,2.59-.36,3.89-.57,1.26,1.38,3.6.06,4.68,1.88Z"/><path class="cls-141" d="M137,139h-1c-1.68-4.44-.71-9.06-.92-13.6-.17-3.75.26-7.52-.48-11.23.95-4-.94-7.53-1.69-11.25,1.07-.43,2.12-.76,3.05.29,1.44,1.48,1.17,3.35,1.17,5.14Q137.06,123.69,137,139Z"/><path class="cls-142" d="M135.92,103.22h-2.76a4.07,4.07,0,0,1-2.49,1.1c-3.59,0-7.34,1.15-10.65-1.27-.77-.07-1.53-.16-1.93-1l18-.28c1,.29,2.21-.27,3.13.72C138.33,103.75,137,102.74,135.92,103.22Z"/><path class="cls-143" d="M136,94.16c-1.55-.64-4,1-4.68-1.88l5.72-.18A1.94,1.94,0,0,1,136,94.16Z"/><path class="cls-104" d="M135.86,113.08q.05,13,.1,25.92l-1.83-1.7q0-10.13,0-20.27c-2.05,5.23.1,10.78-2,15.95-3-4.38-.94-9.33-1.56-14-.29-2.2.86-4.7-1.41-6.46-2.31-1.27-4.83-1.1-7.32-1.1-29.43,0-58.85.09-88.28,0A40.65,40.65,0,0,0,21.83,113l-1.33,2.24c-1.34-2.32.67-5.25-1.48-7.22-.11-1.11.55-1.42,1.49-1.45.33,0,.66,0,1,0,36.21.5,72.39-1.73,108.6-.85a12.92,12.92,0,0,1,1.48.18C135.62,106.72,134.51,110.63,135.86,113.08Z"/><path class="cls-144" d="M19,253c-1.86-1.38-1-3.37-1-5.06-.12-19.91-.14-39.82-.19-59.73q0-26.07,0-52.15H19c0,38-.23,76,1.08,114Z"/><path class="cls-145" d="M64,249.86l-.46,0-.46,0c-4.67-1-9.47.29-14.14-.73-4.31,1.8-8.67.47-13,.15a40.76,40.76,0,0,1-9.91-.07,2.68,2.68,0,0,1-.18-3.39c3.36-2.1,7.09-.82,10.65-1.2a29.21,29.21,0,0,1,3.56,0c1.19,0,2.38,0,3.56,0,5.88,0,11.76,0,17.64,0,1.94,0,4-.21,5.66,1.06a2.79,2.79,0,0,1,.77,1.55C67.76,250,65.34,249.19,64,249.86Z"/><path class="cls-146" d="M130.85,249.86l-43.7,0a2.06,2.06,0,0,1-.69-1.61c2.66-4.48,7-2,10.62-2.6,5,.1,9.93,0,14.89.08a12,12,0,0,1,2.44.31,6.9,6.9,0,0,0,4.54,0,68.28,68.28,0,0,1,10.49-.21,5,5,0,0,1,2.31.75C132.75,248,132,249,130.85,249.86Z"/><path class="cls-147" d="M131.07,111c2.11,5.08.45,10.39.92,15.57.19,2.13.08,4.29.11,6.43q0,4.51-.09,9c.82,2,.27,3.4-1.69,4.26a2.12,2.12,0,0,1-1.08-1,33.36,33.36,0,0,1-1.12-3.6,15.32,15.32,0,0,1-.09-6,8.57,8.57,0,0,0-.1-3.68,68.45,68.45,0,0,1-.28-8c.11-2.75-.23-5.52.41-8.24C128.77,114,129.46,112.18,131.07,111Z"/><path class="cls-148" d="M21.15,249.95q0-39.53-.09-79.07a3.49,3.49,0,0,1,.77-2.78c2.1,1.76,1.65,4.21,1.66,6.48,0,22.22,0,44.45,0,66.67a18.44,18.44,0,0,0,.79,6.87,2.12,2.12,0,0,1-.46,1.8Z"/><path class="cls-149" d="M130.85,249.86l1-2.75a7.41,7.41,0,0,1-1.18-4.74c.06-21.91-.23-43.82.14-65.73a3.65,3.65,0,0,1,1.42-2.54c1,.91.8,2.12.8,3.27,0,23.27,0,46.53,0,69.8C133,248.21,134.45,251.29,130.85,249.86Z"/><path class="cls-150" d="M86.94,249q.12.43.21.87l-23.17,0,3.15-1.92c2.86-1.34,6.69,1.71,9-2,.77-1.41,1.08-3,2.12-4.32a1.92,1.92,0,0,1,2.55-.43c3.3,1.65,3.3,1.65,2.45,5,.25.55-1.22,1.61.51,1.68A4.6,4.6,0,0,1,86.94,249Z"/><path class="cls-151" d="M132.19,174.11l-.29,2c-.62,1.09-1.35,1.52-2.37.43a12.52,12.52,0,0,1-.91-6.76c1.85-6.57,1.08-13.23.69-19.88,0-1.54.56-2.71,2.21-3.07,1.8,2.27,1,4.75.56,7.2v1.07a56.63,56.63,0,0,1,.06,14.88Z"/><path class="cls-104" d="M132.08,154c-.63-2.25.87-4.84-1.12-6.87-.84.15-1.11-.17-.81-1A7.89,7.89,0,0,0,132,142,16.16,16.16,0,0,1,132.08,154Z"/><path class="cls-104" d="M132.13,169.94q0-7.44-.06-14.88A25.33,25.33,0,0,1,132.13,169.94Z"/><path class="cls-110" d="M37,253l-5,0c-.36-1-.58-1.95,1.05-1.92,2,0,3.91,0,5.91,0C39,252.49,37.25,252,37,253Z"/><path class="cls-110" d="M29,252.93l-8,0A10.7,10.7,0,0,1,28,251C29.57,251,29.42,251.89,29,252.93Z"/><path class="cls-150" d="M48.91,249.15c4.72.18,9.5-1,14.14.73C58.33,249.81,53.54,250.95,48.91,249.15Z"/><path class="cls-110" d="M23.83,249.92a2.18,2.18,0,0,0,.11-.71,1.57,1.57,0,0,1,2.12-.38l9.83.48C31.94,250.77,27.86,249.77,23.83,249.92Z"/><path class="cls-152" d="M152,265a4.74,4.74,0,0,1,1,0c1.42.36,3.51-1.14,4.2,1,.38,1.19-.9,1.95-2.21,2-2,.09-4.17.3-3.78-2.85Z"/><path class="cls-153" d="M120,103l11.13.16c.66,1.21,2.68,2.59-.44,3.31q-28.45,0-56.89,0c-1.61,0-3.33.53-4.84-.56.78-2.94,3.21-1.83,5-1.84,13.63-.09,27.25,0,40.88-.09C116.58,104,118.53,104.64,120,103Z"/><path class="cls-154" d="M69,105.93l62.83,0c.73-.44,1.55-.59,2,.21s-.18,1-.87,1q-54.89-.08-109.78-.14c-1.45,0-3-.37-4.16,1a1.63,1.63,0,0,1-1-2Z"/><path class="cls-155" d="M39,95H53c-.61,1.75-2.4.28-3.1,1.82l5.58.48c-2.28,1.48-4.83-.24-6.5,1.68L22,99c1.42-1.61,3.34-1,5-.93,2.76.16,2.3-1.39,1.95-3Z"/><path class="cls-156" d="M26.07,248.83l-2.12.38c-2.36-1.43-1.67-3.78-1.69-5.85q-.25-37.62-.43-75.25,0-27.54,0-55.09c1.72-2.39,4.16-3,7-3q49.53.08,99.05.11c1.14,0,2.35-.18,3.24.85,0,1.74-.2,3.34-2.14,4a4.42,4.42,0,0,1-3.71,1.1,8.43,8.43,0,0,1-1.55-.26c-2.38-1-5.14.06-7.43-1.4-.67-.89-.45-1.58.6-1.79a19.08,19.08,0,0,1,5.79-.1c-8.18,1-16.44-.23-24.61,1.22a7,7,0,0,1-2.21,0c-6.07-.65-12.14-1.18-18.2,0a13.85,13.85,0,0,1-1.22.7,4.09,4.09,0,0,1-2.06.29,34.25,34.25,0,0,0-4.9-.36,31.32,31.32,0,0,1-7.15-.47A186.64,186.64,0,0,0,31.2,114c-3.82,0-4.92,2-4.87,5.69.11,8.24.36,16.49-.15,24.72-.24,1.41-1.41,2.56-1.16,4.12a36,36,0,0,0,1,4.19c.73,6.07.24,12.16.33,18.24,0,2.32.09,4.47,3.36,4,2.35-.1,4.93-1.1,6.53,1.66-1.29,2.41-3.56,3.18-6,3.6-1.38.24-3.06-.13-3.64,1.78-.34,7.91-.11,15.8-.1,23.7.13,1.21-.08,2.42,0,3.63-.06,11.36,0,22.73-.06,34.09a15.66,15.66,0,0,1-.34,2.69Z"/><path class="cls-120" d="M139.94,89c-1.59.32-3.44-.64-4.77,1-31,.11-62.1.21-93.13-.74,29.66-3,59.36-1.94,89-2.14,1.55,1.08,3.14-.18,4.66.08S139.42,86.43,139.94,89Z"/><path class="cls-157" d="M104,92.15c-1.48,1-4.12,1.67-1,3.85-14.55.33-29-1.76-43.61-1-1.47.08-3.12.24-3.35-1.94,3.42,1.9,6.27-1.12,9.55-1.07C78.41,92.19,91.22,92.12,104,92.15Z"/><path class="cls-158" d="M139.94,89c-2.58-2.39-6.34.7-8.86-1.92l3-.95c2.27-.19,4.57.86,6.82-.17,2.35,1,6.64-2.37,7.07,3.08Z"/><path class="cls-123" d="M166,178c-.35.71-.68.66-1,0-1.4-1.69-.16-3.35.05-5C170.42,173.72,167.83,175.95,166,178Z"/><path class="cls-159" d="M157.91,259.13a12.57,12.57,0,0,1-1.17,2.14c-1,1.2-2.35.92-3.63.59a1.2,1.2,0,0,1-.9-1.51c.47-1.81,2-1.25,3.25-1.34a20,20,0,0,1,2.45.1Z"/><path class="cls-102" d="M133,107.13c.86-1.57-.67-.89-1.14-1.22l-.67-2.71h2c2.71,2.79,3.33,6.16,2.7,9.87C133.34,111.86,134.75,108.71,133,107.13Z"/><path class="cls-160" d="M67.2,246.94c-5.2-1.77-10.58-.47-15.86-.88-2.76-.22-5.55-.16-8.32-.23a1,1,0,0,1,.31-1.27,12.47,12.47,0,0,1,5.76-.49c4.8-.12,9.62.08,14.41-.26a2.4,2.4,0,0,0,1.73.39,3.8,3.8,0,0,1-1.84-.39c-4.7.38-9.42-.14-14.12.41-1.67-1-4.07.75-5.45-1.42.19-1,1-1.48,1.85-1.82,9.72-.51,19.44-1.44,29.11.53,1.41,1.25,1.4,2.75.78,4.36C73.08,248.61,70.25,248.6,67.2,246.94Z"/><path class="cls-161" d="M40.16,246H36.93a2.2,2.2,0,0,0-.87-.41c-1.44-.43-3.75,1-4.23-1.22-.52-2.41,2.09-1.87,3.37-2.57.42-.23.58-.76.85-1.18,4.33-2.65,5.41-7.69,8.37-11.34,1.47-1.82,2.47-4.52,5.72-3.4,1.38,3.1-1,5.11-2.15,7.48C45.23,237.44,43.7,242.32,40.16,246Z"/><path class="cls-162" d="M35.9,241.25c-.19.72,2.6.6.58,1.65-1.14.59-2.83-.24-4.13.81,1,2.17,3.73.24,4.58,2.24l-10.87.21-.87-1.27a2.89,2.89,0,0,1,1.28-1.53c1.18-.23,1.38-.72.93-2-.77-2.13-1-4.38.57-6.37a1.66,1.66,0,0,1,1.34-.14C31,237.52,33,239.89,35.9,241.25Z"/><path class="cls-163" d="M40.16,246c1.29-4.84,4.47-8.69,6.78-13a1.54,1.54,0,0,1,2.5.66c.16,3.61-2.31,5.88-4.31,8.39l-1.11.93c.76,1.15-.21,1.47-.91,1.91q-.05.48-.1,1Z"/><path class="cls-164" d="M67.2,246.94a12.66,12.66,0,0,0,7.59-1,1.59,1.59,0,0,1,2.14.09c.14,1.9-.3,3.33-2.65,3s-5,.7-7.16-1.08Z"/><path class="cls-165" d="M130,177l1.89-1q0,35.52-.09,71l-1.87-.13c-2.22-3.1-1-6.66-1.33-10,0-7.32,0-14.65,0-22a23.82,23.82,0,0,0,.09-7.66c0-7-.52-13.91.12-20.85.19-1.24.71-2.4.84-3.66a16.89,16.89,0,0,0-.09-2.68c0-.85.14-1.7.17-2.56Z"/><path class="cls-166" d="M118,247c-1,1.29-2,1.18-3.09.2a65.06,65.06,0,0,1-4.14-6.71c-2.14-3.29-3.84-6.82-5.88-10.16-.82-1.34-1.85-2.78-.88-4.53,3.5-1,5,1.45,6.61,3.78,2.93,4.15,4.69,9.08,8.51,12.61,1.41,1.2-2.27.75-.65,2a2.74,2.74,0,0,1,.21,1.76A2.82,2.82,0,0,1,118,247Z"/><path class="cls-167" d="M86.94,249H79.38c.19-2.95,3-1.32,3.6-2.88A19,19,0,0,1,86,244.31a4,4,0,0,1,2.31-.09c-1.24-.53-3,.15-3.7-1.66a1.63,1.63,0,0,1,.87-1.2c3.75-1.19,7.54-.91,11.33-.3,2.69,1.78,2.33,3.73.31,5.77l-6.93.14C88.74,247,87.1,246.75,86.94,249Z"/><path class="cls-168" d="M97.14,246.84c1.08-1.37-.52-3.3,1-4.59,2.64-.82,5.32-1.93,7.41,1.07a1.92,1.92,0,0,1-.59,1.15,2.54,2.54,0,0,1-2,.37,3.76,3.76,0,0,0,2.92-.28,4.45,4.45,0,0,1,1.37-.1,40.89,40.89,0,0,1,4.84.83c.66.36,1.21.79.89,1.67Z"/><path class="cls-169" d="M112.91,247l-1.07-1c-1.46-1.41-3.32-.68-5-.94l-1.18,0c-.8,0-1.26-.25-.61-1.09a1.59,1.59,0,0,1,0-.8c.68-2.1,2.9-2,4.33-3.1.85-.41,1.71-.86,2.47.16,1.52,2,2,4.76,4.39,6.23.29.18-.82.58-1.33.81Z"/><path class="cls-170" d="M118,247l0-1.05c1.53-1.37,3.52-1,5.29-1.41a7.4,7.4,0,0,1,1.38-.11c5.67,0,2.14-4.13,2.88-6.34,0-.23.06-.46.09-.7a1.49,1.49,0,0,1,1-.85,1.58,1.58,0,0,1,1.23.52l0,9.93Z"/><path class="cls-171" d="M130.16,146.14l.81,1-1,2.73-.15.71a21.64,21.64,0,0,1-18,6.53c-.18-3,2.22-3.74,4.31-4.52a32.11,32.11,0,0,0,8.88-5.08c1.55-1,1.34-5.67,5-2.44Z"/><path class="cls-172" d="M130,145c-3.71-2.23-2.2,2.56-4,2.94-1.77-1.7-1.46-3.95-1.5-6.06-.08-5.12-.28-10.27,0-15.37.29-4.56-1.17-7.28-5.91-7.76a1.7,1.7,0,0,1-.95-1.33c1.53-2.3,3.88-1.83,6.1-1.81,5.26.45,3.9,4.59,4.31,7.74.63,3.18-1.48,6.62.9,9.64,1.21.8.88,1.5-.13,2.16-1.16,2.24-1.54,4.47,0,6.7C130.61,142.48,129.85,143.93,130,145Z"/><path class="cls-173" d="M128.31,124c-1.51-.75-1.45-2.21-1.19-3.42.57-2.66-1.15-3.61-3-4.57a1.94,1.94,0,0,1,.86-.88l3.94-.07q-.12,4.5-.24,9Z"/><path class="cls-174" d="M128.31,124l.38,0q.18,4.51.36,9c-1,1-1.86.86-1.9-.52C127.05,129.62,126.45,126.61,128.31,124Z"/><path class="cls-175" d="M128.92,141.9c-2.6-.65-2.6-3.49,0-6.7Q128.91,138.55,128.92,141.9Z"/><path class="cls-176" d="M118,117.89c8,.38,8,.38,8,8.28q0,10.91,0,21.82c-2.25,2.8-5.39,4.18-8.64,5.38-2.12.78-4.47,1.21-5.38,3.73-2.4,3.78-6.33,5.32-10.2,7a20.82,20.82,0,0,1-3.79.29c-1.69,0-3.39-.07-5.08,0a9.09,9.09,0,0,0-3.15,1.2c-8.52.06-17-1.42-25.52-.91-2-.64-2.89,1.18-4.33,1.8-1.92-.07-2.52-3.38-5.36-1.87.72,2.36,3.37,2.3,4.73,3.7A30.1,30.1,0,0,1,64,173.43c2,3.29,5.92,5.15,7.08,9.11,5.25,2.59,9.24,1.82,12.73-2.42,2.24-2.72,5.23-4.58,8-6.76,5.45-2.92,10-7.08,14.64-11,2-1.66,3.86-3,6.64-2.7,3.57.33,6.1-2.27,9.05-3.67,1.68-.79,3.5-2.58,4.91.4.47,7,1.06,14.08-.23,21.09-3.37,3.8-7.59.84-11.36,1.42-.81.47-2.25.45-2.12,1.67.08.72,1.4.64,2.17,1,3.66.84,7.76-1.1,11.09,1.77,1.95,6.68.66,13.46.57,20.19-1.1,3.23-3.09,2-5.13,1.08-2.73-1.2-4.87-4-9.4-3.5,3.24,3.86,7.22,5.1,10.5,7.27,2,1.23,3.76,2.57,4.15,5.08.44,8.8.16,17.59,0,26.38-.1,4.5-3.4,5.63-8.23,3-5.35-2.33-6-8.19-9-12.26-1.64-2.21-3-4.27-6-4.43-.54,2.62.83,4.66,2,6.77,1.5,2.65,3.49,5.08,3.89,8.25-1.16,1.77-3.58.43-4.83,2l-7-.85L85,242.12a6,6,0,0,1-5-.12c-.37-.73-.7-.66-1,0a3.33,3.33,0,0,1-4.12.12L45.14,242c.47-3.07,2.79-5.24,3.87-8-.13-2.7,3-4.91,1.18-7.87-5.08,1-5.86,5.87-8,9.33-1.63,2.6-2.91,5.21-6.25,5.8-5.08,1-6.51-2-6.81-6.2-2.34-2.67-1.29-5.91-1.44-8.92s0-6.19,0-9.29c.07-1.94-.13-3.91.45-5.81,1.39-3,4.43-3.83,7-5.33a42.91,42.91,0,0,0,7.62-5.32c.35-.63-.8-.9-.24-.55.23.15.24.3.06.5-2.36,2.51-5.42,3.65-8.65,4.52-2.07,0-4.39.76-5.7-1.75-1-5.85-.3-11.74-.45-17.6a6.44,6.44,0,0,1,.81-3.3c1.86-1.92,4.3-1.42,6.58-1.51,2.64-.1,5.31,0,7.65-1.53-2.62.38-5.17.94-6.88-1.87-1.85-2.4-4.49-.74-6.7-1.31-2.9-6.46-1.57-13.15-1.11-19.8,1.24-2.67,3.21-1.8,5-.87,2.05,1.07,4,2.28,6,3.44,1,.4,2.14,1.51,3,0,.59-1.06-.5-1.84-1.32-2.32-3.12-1.85-6.16-3.8-9.17-5.82-1.67-1.12-3.32-2.19-3.71-4.39-.43-7.26-.16-14.52-.19-21.77,0-8.51.53-9,8.95-8.75,5.54,1.81,6.28,7.39,9,11.45,1.65,2.54,2.36,5.78,5.42,7.23,2.06-2.09,0-3.57-.87-5a48.86,48.86,0,0,1-4.1-7.82c-1-2.7-.34-4.47,2.49-5.3a6.18,6.18,0,0,1,2.28,0c5,.76,10,.19,15,.36,5.37.18,5.92.73,6.72,5.86.54,3.42.73,6.91,1.73,11.15,1.82-2.66,1.23-5,1.43-7.13.27-2.92-.74-6,1.39-8.66,3.79,1.78,2,5.24,2.42,8,.07,2.32-.61,4.7.56,6.93a5,5,0,0,0,.91.79c2.65-.38,1.61-2.55,1.76-3.93.28-2.63,0-5.31.15-8,.1-1.82.1-3.73,2.19-4.65a110.67,110.67,0,0,1,22.59-.16c2.77,1,2.19,2.95,1.26,4.86-1.23,2.54-2.57,5-4,7.44-1,1.61-2.37,3.29-.45,5.17,4.18-3.95,5.72-9.56,9-14C114.59,118.94,115.42,116.74,118,117.89Z"/><path class="cls-177" d="M74.9,242.16,79,242l-2.08,4L74.8,246Q74.85,244.06,74.9,242.16Z"/><path class="cls-178" d="M80,242l5,.12.23,1.08a2.24,2.24,0,0,1,.69,2.08c-.77,1-1.91.69-2.93.8-.35-.5-2,.86-1.33-.82.14-.35,1.8.13,2.22-.83C83.33,242.06,80.56,244,80,242Z"/><path class="cls-179" d="M126,178l-.25-22.7a1.85,1.85,0,0,1,1.87-.88c2,.57,2.77,1.51,2.54,4a90.8,90.8,0,0,0-.82,11.66,21,21,0,0,1,.63,7l0,.08C128.76,177.62,127.53,178.4,126,178Z"/><path class="cls-180" d="M129.37,170c-1.5-.74-1.86-2.6-1.17-3.33,2.86-3.05-2-7.06,1.47-9.86L128.08,155c-.53-2.1,1.26-3.28,2-4.9l-.06-.25C131.61,156.62,132,163.36,129.37,170Z"/><path class="cls-181" d="M77.12,118.28c0,4.66,0,9.33-.16,14-.06,1.63-.67,3.92-2.35,4-2.14.06-2.49-2.15-2.63-4.09-.25-3.63-.83-7.25-.89-10.89-.05-2.78-1.41-3.19-3.76-3.3-5.77-.26-11.6.83-17.31-.72,2.61-2.64,5.94-1.31,9-1.59,1.81-.16,3.65,0,5.46,0,3.34.52,8-1.51,8.61,4.07.21-1.72-.87-4,1.06-5.7l1.76.06C79.76,114.45,77.49,116.64,77.12,118.28Z"/><path class="cls-182" d="M108.93,118.23l-24.84-.09c-.94.22-1.27-.27-1.28-1.12,3.11-4.51,8.53-1.9,12.41-4l.68-.1,2.18.06a36.31,36.31,0,0,1,14.06.22,1.76,1.76,0,0,1,.13.45c0,2.74-2,1.7-3.41,1.87C110.51,116.36,111.66,117.25,108.93,118.23Z"/><path class="cls-183" d="M29.08,155.05l0,20.94c-3.06.88-4.38.23-4.23-3.43.29-6.86,0-13.75,0-20.63l.65-.19C27,152.5,29.07,152.67,29.08,155.05Z"/><path class="cls-184" d="M29,147.93c4.11,2.43,8.23,4.82,12.31,7.29,1.77,1.08,3.55,2.65,2.36,4.78-1,1.88-3.07,1.34-4.7.19a1.87,1.87,0,0,1,2.13-.76c-.35-.51-1-.29-1.42-.52a117.33,117.33,0,0,1-11.92-7.13c-1.2-.82-1.87-1.07-2.62.28l-.26-.13c-1.28-1.08-.69-2.57-.85-3.89a3.56,3.56,0,0,1,3.62-.9A5.08,5.08,0,0,1,29,147.93Z"/><path class="cls-185" d="M35.83,177.31c2.2,1.94,5.67-.26,7.82,2.68-4.32,4-9.75,1.13-14.47,2.23-3,2.67-3.57.44-4-2C28.37,177.85,32.53,179.16,35.83,177.31Z"/><path class="cls-186" d="M65,116.92l-15,.34-2.06,0c-1.5.25-3.19,1.37-4.15-.9,1.25-2,3.24-.88,4.89-1.16,1.06-.62,2.2.05,3.28-.17-1.1.16-2.26-.58-3.33.19-2.22-.46-4.67.52-6.71-1.07a1.2,1.2,0,0,1,.59-1.43c6.81-.09,13.61-.46,20.41.2l8,.27c.91.93.51,1.62-.42,2.2-1.55.42-3.34-.74-4.73.73A5,5,0,0,1,65,116.92Z"/><path class="cls-187" d="M29.24,210.43l-.14,5.65c-.79.33-1.54.7-1.57,1.73a20.18,20.18,0,0,0,.14,7.32,6.89,6.89,0,0,1,0,1.45,61.09,61.09,0,0,0-.29,9.69c-.85,2.46.49,5.25-1.13,7.6l-1,1q0-17.81-.05-35.61a2.46,2.46,0,0,1,2.23-1.07C28.54,208.48,29.67,208.8,29.24,210.43Z"/><path class="cls-188" d="M77.12,118.28c-2.14-.91,1.31-3.45-1.24-4.23l.18-1c2.24-.81,4.27-.8,5.73,1.46a68.56,68.56,0,0,1,.65,14.86c-.06,1.84.35,4.17-2.43,4.72h0c-2-2,0-5.07-2-7C77.62,124.11,78.73,121.06,77.12,118.28Z"/><path class="cls-189" d="M25.05,146c0-8.82.33-17.66-.11-26.45-.25-4.93.81-7.48,6.16-6.71,1.48-.54,3-.24,4.5-.24a1.12,1.12,0,0,1,.71,1.14c-1.08,1.73-3,1.31-4.57,1.77a7.3,7.3,0,0,1-1.38.12c-5.7.19-2.23,4.26-2.79,6.61a6.78,6.78,0,0,1-.05,1.37,33,33,0,0,0,.07,9.62,7.24,7.24,0,0,1-.05,1.43,41.09,41.09,0,0,0-.25,7.22,10.23,10.23,0,0,1-.07,1.52C26.87,144.57,27,146.13,25.05,146Z"/><path class="cls-190" d="M25.2,180.18c1.16,1.3,2.91,2.2,4,2L29,185l-.85.91c-1.29,1.54-.5,3.17-.2,4.78a19.79,19.79,0,0,1-.49,6.29,12.37,12.37,0,0,0,.35,4.89,5.84,5.84,0,0,1,0,2.21c-.51,1.22-1.07,2.35-2.74,1.87Z"/><path class="cls-191" d="M36,113.19l-4.92-.34c8-1.8,16.09-.44,24.13-.74,2.54-.1,5.29-.91,7.71.77-5.49,0-11,0-16.45.15-1.47,0-3.34-1-4.41,1a2.53,2.53,0,0,1-2,.83A6.94,6.94,0,0,1,36,113.19Z"/><path class="cls-192" d="M112.13,114c-4.55-2.07-9.39-.37-14-1.07,3.61-2.6,7.61-.78,11.42-.92,4.82-.19,9.65,0,15.92,0-4,1.83-7,.06-9.42,1.83a1.84,1.84,0,0,1-1.1,1A2.6,2.6,0,0,1,112.13,114Z"/><path class="cls-193" d="M70.06,115c1-.3.9-1.1.89-1.87l3.17.85q0,4.08,0,8.15c-1.26-5.39-5.23-5.24-9.11-5.23q0-.37,0-.74C66.37,114.41,68.35,115.29,70.06,115Z"/><path class="cls-194" d="M115.13,114.07a3.15,3.15,0,0,0,.87-.27c2.59.79,5.55-.89,7.95,1.19-1.6,1.74-4.31.27-5.91,2q0,.44,0,.88c-2.22,0-2.69,2.09-3.92,3.28a4.14,4.14,0,0,1,1-7.09Z"/><path class="cls-195" d="M25.06,206c1-.21,1.51-1,2-1.84s1.42-.07,2.11-.25c1.64.43,3.32-1.05,4.94.13-.87,4-4.34,4.09-7.37,4.84l-1.61.42Z"/><path class="cls-192" d="M81,114.05a7.24,7.24,0,0,0-4.94-1c6.6-2.08,13.22-1.56,19.85-.12l.06.34c-3.85.86-7.81.69-11.69,1.19A5.49,5.49,0,0,1,81,114.05Z"/><path class="cls-196" d="M25.05,146c1.35-.65.69-2,1-3,4.54-.05,1.89,3,2.11,4.85L24,148C22.82,146.57,24.41,146.53,25.05,146Z"/><path class="cls-197" d="M118,117c.77-4.18,4-1.15,5.91-2l1,.11-.86.88A11.26,11.26,0,0,1,118,117Z"/><path class="cls-198" d="M63.93,244.09c-5,1.2-9.95,1.61-14.88-.2l0,.09c5-1.27,9.94-1.82,14.87.19Z"/><path class="cls-199" d="M63.87,244.17A5.27,5.27,0,0,1,70,244c-2,1.21-4,1.72-6,.13Z"/><path class="cls-200" d="M43.12,244.86l.91-1.91c1.68.26,3.66-1,5,1l0-.09C47.31,245.67,45.17,245,43.12,244.86Z"/><path class="cls-201" d="M50.18,226.12c1.75-.83,1.87.32,1.81,1.55A10.21,10.21,0,0,1,49,234a2.1,2.1,0,0,0-2.06-1Z"/><path class="cls-202" d="M27,217c-.34-.82-1.16-1.81.15-2.36s.86,1.54,1.95,1.48q0,9.49,0,19l-1-.07-.59-.51c-1-2.78-.26-5.68-.55-8.51l0-1C26.89,222.27,27.14,219.61,27,217Z"/><path class="cls-203" d="M26.22,243.86c-.17-2.69-.63-5.41.84-7.93q-.25-1,.72-.78l.35-.17c.19,2.91-1.37,6.23,2.13,8.36C29,244.74,27.54,243.92,26.22,243.86Z"/><path class="cls-204" d="M125.87,205q0-10.93,0-21.85c2.12-.9,3.4.14,4.36,1.9L130,208a1.1,1.1,0,0,1-1.22.31C127.72,207.28,125.64,207.13,125.87,205Z"/><path class="cls-205" d="M119,242.8c7,.26,7,.26,7-6.42q0-12.14.09-24.27c1.84-.46,2.7,1,3.78,2q0,11.49,0,23l-1.14-.18c-1.15-3.27-.47-6.71-1-10,.6-1.23.32-2.49.14-4.09,0,1.44.51,2.54-.08,3.64-.14,3.57.64,7.12.12,10.69l0-.06c-.45,1.44,0,2.9,0,4.34.08,2.95-1.88,3.39-4.07,3.7l.12,0c-2.05.08-4.13.35-6-.82-.52-.16-1.45-.29-1.12-.87S118.28,243,119,242.8Z"/><path class="cls-206" d="M113.78,182.14c-4.58-1.65-1.34-2.8.26-4.06,5.23,1.51,10.83,0,16,1.93a1.87,1.87,0,0,1,.88,2C125.23,183.38,119.5,182.38,113.78,182.14Z"/><path class="cls-207" d="M130.05,180c-5.45.25-10.87.33-16-1.93,4-2.1,8,1,12-.11,1.15-1.19,2.26-2.51,4-.87A2.6,2.6,0,0,1,130.05,180Z"/><path class="cls-208" d="M129.86,214.09c-1.8.37-2.75-.87-3.78-2L122,209c-.23-2.12,1.08-2.78,2.71-2.26,1.39.44,3,.35,4.2,1.29l1.08,0A7.64,7.64,0,0,1,129.86,214.09Z"/><path class="cls-180" d="M113.78,182.14l17.15-.14c0,1.07.26,2.18-.72,3l-4.36-1.9C121.84,182.65,117.68,184,113.78,182.14Z"/><path class="cls-209" d="M109.92,241.14c-2-3.05-4-6-5.84-9.18-1.07-1.83-2-3.88-.08-5.85l7.89,14A1.86,1.86,0,0,0,109.92,241.14Z"/><path class="cls-210" d="M118.07,244.2a8.42,8.42,0,0,1,6,.82c-1.77,2-4,.61-6.07.93Z"/><path class="cls-211" d="M85.9,245.28c-.93-.46-.92-1.23-.69-2.08,1.65.2,3.52-.68,5.32,1.39Z"/><path class="cls-176" d="M105.07,243.89l.61,1.09c-2.07,1.59-4.12,1-7-.06C101.09,243.17,103.16,244,105.07,243.89Z"/><path class="cls-212" d="M106.86,245c1.94-1.13,3.87-2.25,5,.94C110.18,245.64,108.24,246.75,106.86,245Z"/><path class="cls-213" d="M124,245.07c5.14-.77,1.73-5.86,4.06-8a13.37,13.37,0,0,1,1.19,4.59C129.64,246.31,127.71,247,124,245.07Z"/><path class="cls-214" d="M128,237.08c-.83-3.67-2.1-7.34.11-11l-.07-.06c1.73,3.51,1.15,7.17.74,10.82A1.09,1.09,0,0,0,128,237.08Z"/><path class="cls-215" d="M130,150.1a4.75,4.75,0,0,1-2,4.9l-2.29.28c-5.15,2.26-9.47,5.65-15.74,6.35-4.46.49-8.35,6.06-12.5,9.35-1.68,1.33-3.22,2.91-5.47,3.28-.87-2.46,1.42-3,2.59-4.11,1.85-1.82,4.53-2.73,5.68-5.3a3.4,3.4,0,0,1,1.78-1.77l9.91-6C118.33,155.54,124.51,153.67,130,150.1Z"/><path class="cls-216" d="M61,211l-1.62,2.81c-3.44-3.74.45-6.72,1-10a28.64,28.64,0,0,1,6.3-6.49c1.27-.47,2.65-.52,3.92-1,.4-.15.82-.28,1.24-.39a30.54,30.54,0,0,1,4.87-1.09,6.4,6.4,0,0,0,2.06-1,1,1,0,0,1,1,.22c.34,4,4.38,2.23,6.17,4,1.25,2-.83,4.32.72,6.27a7.38,7.38,0,0,1-3.2,4.74c-1.66,1.34-3.46,2-5.57,1.16s-3.05,1.62-4.84,1.67c-1.27-2.76-2.79-5.3-6.27-5.46C63.69,206.31,62.3,208.62,61,211Z"/><path class="cls-217" d="M102.12,163.08l-1.32,1.79c-6.15,6-14,9.42-21.37,13.54-3,1.68-4.86,6-9.35,4.7-.61-4.32-5.55-5.45-6.83-9.28,3.91-1,4.81,3.58,8.1,4.35.86-1.92-.46-2.66-1.64-3.48-3-2.07-6.5-3.4-9.1-6.08-.57-.78-1.12-1.58-.64-2.62.41-2.54,1.8-3.09,4-2,.88.62-.08,2.16,1.29,2.54a17.26,17.26,0,0,1,1.65,1c3.19,2.05,7,2.84,10.2,4.82,2.07,1.28,3.75-.14,5.49-1a32.22,32.22,0,0,0,4.68-2.68c.55-.89,2.66-.16,2.17-2.13A1.74,1.74,0,0,1,90,165c.12-1.31.75-2,2.14-1.7a5.87,5.87,0,0,0,5.79-.14Z"/><path class="cls-218" d="M70.08,183.12c8.64-5.27,17.3-10.51,25.91-15.83,1.55-1,3-2.07,4.81-2.42,1.2,2.43-1.2,2.83-2.29,3.81-2.12,1.89-4.95,3-6.44,5.58-2.61,3.83-8.36,4.89-9.11,10.47-.13,1-12.33.69-13.35-.28C69.47,184.32,69.91,183.58,70.08,183.12Z"/><path class="cls-219" d="M87,143h3c4.45,0,7,4.7,4.9,8.78-.74,1.43-1.86.76-3,.84-3.9.29-7.74-1.12-11.68-.18-2.07.49-2.47-1-2.21-2.72.38-2.51-1.38-6.09,3-6.65a48,48,0,0,1,6,0Z"/><path class="cls-220" d="M90,165l0,2.07c-3.44,2.19-7.29,1.09-11,1.39-4.62-.29-9.38.78-13.83-1.29-4,.4-1.1-2-1.24-3.11,3.64-2.72,7.61.11,11.4-.66,3-.63,6.08,1.81,9.34-.1C86.6,162.18,87.73,165.86,90,165Z"/><path class="cls-221" d="M60.53,204c1.49,1.67-.21,2.92-.73,4.17-.8,1.92-1.49,3.7-.39,5.68a5.16,5.16,0,0,1-1.8-.71c-3.21-3.14-4.41-1.9-4.56,2,0,.92.23,2.05-1.63,2.6-.14-5.34.27-10.3,3.46-14.69,1.58-1.95,3.3-2.52,5.28-.53A2.46,2.46,0,0,1,60.53,204Z"/><path class="cls-222" d="M129,208c-2.06,2.05-5.12-3.08-6.91,1-2.75-1.53-5.48-3.09-8.24-4.59-1.59-.86-3-2.32-2.29-3.89.91-2.07,3.07-1.51,4.81-.74,3.33,1.46,6,4.16,9.55,5.18C126.4,206.48,129.33,205.6,129,208Z"/><path class="cls-223" d="M115.13,114.07l-1.86,4.12c-.7,5.23-4.55,8.92-6.63,13.48-.74,1.62-2.1,2.9-2.61,4.65-2.48-1-2.86-3.66-.88-6.93,2.17-3.59,4.57-7.07,5.79-11.15,2.48-2.14-1.33-1.69-1.25-2.82,1.38-1,3.37.29,4.45-1.39Z"/><path class="cls-224" d="M40,114.05l2.09,0H42c.64.71,1.86.87,2,2.05.88,1.84,2.72.42,3.93,1.16-1.69,1.07-1.66,2.25-.94,4.11,1.41,3.59,3.91,6.49,5.57,9.88,1.47,3,1,4.17-1.55,4.82-2.49-3-4-6.59-5.88-9.93C43.45,122.08,39.69,118.94,40,114.05Z"/><path class="cls-225" d="M81,114.05l2.11-1c2.27,1.44,1.55,2.77-.14,4.07l1.12,1c0,4.11-.13,8.22-.08,12.33a6.8,6.8,0,0,1-1.68,5c-.51.56-.88,1.71-1.78.87-.47-.44-.38-1.49-.54-2.26C82.28,127.48,80.41,120.71,81,114.05Z"/><path class="cls-226" d="M61,168c3.42,2,6.89,4,10.25,6.16,1.83,1.17,3.71,2.37,1.45,5.07-2.39,2.85-2.95-.3-4.08-1.06-1.9-1.29-3-3.6-5.35-4.36l-4.4-4.62C58.78,167.43,59.68,167.37,61,168Z"/><path class="cls-227" d="M83.31,208c1.49-.91,1.92-2.57,2.75-3.94,1.92-1.65,4-1.42,6.23-.67a2.57,2.57,0,0,1,1.6,1.73L96.06,210c.28,1.17,1.51,2.65-.94,3-3.76-5.62-7.27-5.84-13-.82C80.8,210.95,80.8,210.95,83.31,208Z"/><path class="cls-228" d="M65,150.05c-1.48.62-3.25,2.53-4.43,1.28-1.45-1.53-.78-4.17-.43-6.22s2.5-1.28,3.76-1.12c3.64.45,7.54-1.49,10.94,1.11-1.36,1.13-2.7.71-4,0L70,146A15.29,15.29,0,0,1,65,150.05Z"/><path class="cls-229" d="M25.11,152.06c-.51-2.81.76-2.71,2.62-1.58,4.85,3,9.7,5.93,14.62,8.95-1.15,1.17-2.35.53-3.4.76-3.31-1.68-6-4.54-9.86-5.14C28,153.8,25.94,153.72,25.11,152.06Z"/><path class="cls-230" d="M83.31,208c.35,1.6-2.65,2.23-1.21,4.15a5.51,5.51,0,0,0-.91,3.25c-.08,2-.9,3.57-3.21,3.54-1.83,0-3.32-1-3.51-2.82a3.35,3.35,0,0,1,2.95-3.91c2.57-.23,2.58-.63.57-1.94C80.33,210.83,81.41,208.43,83.31,208Z"/><path class="cls-231" d="M60.53,204l-.49-.93c-1.46-1.4-1.24-3.48-2.05-5.14.42-2.28,2.23-2.6,4.06-2.9.74-.49,1.74.47,2.4-.45,2.15.07,4.43.05,2.43,3.23C65,200.14,63.84,203.16,60.53,204Z"/><path class="cls-232" d="M26.75,208.85c2.31-1.84,5.39-2.49,7.37-4.83l9.11-4.56c-2.76,6.23-9.36,7.3-14,11A2.84,2.84,0,0,0,26.75,208.85Z"/><path class="cls-233" d="M28.14,147.9c-.44-1.73,1.34-4.43-2.11-4.85l.07-1.18c2-2.43.29-5.3.94-7.89l0,.11c.29-3.71-.21-7.41,0-11.12l0,.12c.56-1.11.12-2.27,0-3.36-.3-3.09,1.09-4.55,4.07-4.72l-.12,0c2.32-.09,4.66-.36,6.89.6A1,1,0,0,1,38,117c-8.85.08-8.88.08-9,9.1-.06,7.27,0,14.53,0,21.8l-.42,0Z"/><path class="cls-234" d="M104,136.32c-1.55-1.88.42-3,1.1-4.2,2.6-4.71,5.41-9.3,8.15-13.93,1,.79.55,2,.82,3C110.63,126.15,109.25,132.51,104,136.32Z"/><path class="cls-235" d="M61,211c0-4.08,2.14-6.23,6.13-6.12,4.38.11,5.92,3,6,7C69.35,208.27,65.35,207.49,61,211Z"/><path class="cls-236" d="M38,117l-.13-1.35c-.88-.32-1.69-.71-1.82-1.79a6.85,6.85,0,0,0,0-.7,4.39,4.39,0,0,1,4,.87l6.12,11.89c.54,1.22.63,2.19-1.16,2.14Z"/><path class="cls-237" d="M78.06,195.88l-6,1c1.22-2.75.7-4.66-2.54-5.27L69,191c2.43-1.55,5.25-1.74,8-2,5-.41,5.26.24,2.86,5a1,1,0,0,1-.65.21c-.6-.12-.56-.91-1.12-1.09C78.19,194.11,78.83,195,78.06,195.88Z"/><path class="cls-238" d="M61,168a2.22,2.22,0,0,0-2.13,1.18c-1.18-.54-2.6-.83-3.49-1.68s-3.05-1.1-3.05-2.83,1.8-1.88,2.87-2.27c1.64-.59,3,.38,3.89,1.92L60,166Z"/><path class="cls-239" d="M92.88,204H86.06c-3.39-2,.18-4,0-6,.69-1.24,1.29.82,2,.06l-.05-.05c.77,2.6,3.47,3.23,5.09,5q.41.4.2.71T92.88,204Z"/><path class="cls-240" d="M29.18,203.89c-.59,1.09-1.41.13-2.11.25L27,201.91c-.47-1.57.82-3.48-.94-4.8.24-2.29,1.33-4.46.91-6.83.2-1.75-.35-3.63.94-5.18L29,185Z"/><path class="cls-241" d="M71.43,160.73c2.7-1.08,5.57-.21,4.34-3.35-.7-1.79.53-1.47,1.44-1.36.75.1,2.47-.66,1.95,1-.92,2.92,1.05,3,3,3.58C79,161.62,75.95,161.48,71.43,160.73Z"/><path class="cls-242" d="M44.94,128.09a2.29,2.29,0,0,0,1.16-2.14A31.36,31.36,0,0,1,51,136C47.46,134.58,46.35,131.22,44.94,128.09Z"/><path class="cls-243" d="M65,150.05c1.31-1.81,2.39-3.9,5-4C71.41,151.07,71,151.37,65,150.05Z"/><path class="cls-244" d="M70.81,145.06l4,0L73,151.85C71.47,149.09,72.33,146.67,70.81,145.06Z"/><path class="cls-245" d="M58,197.93c3.39.63.66,3.71,2.05,5.14a4.53,4.53,0,0,0-5.15,0C55,200.8,57.2,199.78,58,197.93Z"/><path class="cls-246" d="M102.42,220c-1.74-.53-3.92,2.08-5.22-.62-.17-.35,0-1.27.21-1.34C99.52,217.33,101,218.54,102.42,220Z"/><path class="cls-181" d="M78,127c3.57,1.53,1.44,4.65,2,7C76.38,132.53,78.51,129.41,78,127Z"/><path class="cls-237" d="M64,195.34c-.8.84-1.3-.26-2-.3,1.49-2.8,3.93-3.93,7-4l0,0a1.52,1.52,0,0,1,.35,1.85C67.86,194.32,65.58,194.05,64,195.34Z"/><path class="cls-247" d="M95.12,212.94c1.36-.65.63-2,.94-3,1.14,0,2.52-.33,3.37.19,1.37.83,1.47-3.25,2.51-.64.7,1.76-1.25,1.41-2.25,1.37-1.75-.07-2.48.47-2.84,2.37C96.58,214.72,95.53,214.12,95.12,212.94Z"/><path class="cls-248" d="M67.93,233.9a2,2,0,0,1-1.61,2c-1,.16-1.26-.71-1.32-1.59-.07-1.08.17-2,1.41-2C67.29,232.21,67.87,232.79,67.93,233.9Z"/><path class="cls-249" d="M92.88,204l.16-1c2.59.85,1.13-4.92,4.78-2.45l-3.93,4.51Z"/><path class="cls-250" d="M97.93,163.14c-1.9,1.42-3.77,3.82-5.79.14Z"/><path class="cls-251" d="M88,198.12l.8-5c2,2.16,2.18,3.92-.85,4.94Z"/><path class="cls-252" d="M83,117.14a4.53,4.53,0,0,0,.14-4.07l12.85.14C92.25,116.59,86.89,114.46,83,117.14Z"/><path class="cls-253" d="M26.77,168.37c1.69,2.32,1.59,3.83.56,5.84C25.56,172.46,25.85,170.88,26.77,168.37Z"/><path class="cls-254" d="M49.14,115.15c2.1-2,4.37-1,6.64,0-2.18,1.11-4.38,1.76-6.69,0Z"/><path class="cls-255" d="M70.06,115c-1.35,1.84-3.42.57-5.06,1.17-.56-.39-1.2-1.25-.63-1.52C66.25,113.77,68.28,113.25,70.06,115Z"/><path class="cls-256" d="M63.3,115.4a6.19,6.19,0,0,1-6.25,0C59.85,113.85,59.85,113.85,63.3,115.4Z"/><path class="cls-257" d="M44,116.05A3.52,3.52,0,0,1,42,114c2.4.24,4.94-.41,7.12,1.15l-.06-.07C47.62,116.53,45.76,115.95,44,116.05Z"/><path class="cls-258" d="M27.78,235.15l-.72.78A11.19,11.19,0,0,1,27,226C29.15,228.85,27.81,232.06,27.78,235.15Z"/><path class="cls-259" d="M27,217c2,2.65,1.24,5.3,0,8C25.3,222.27,25.66,219.62,27,217Z"/><path class="cls-260" d="M31.08,115c-4.89.91-1.73,5.9-4.09,8.09a12.2,12.2,0,0,1-1.07-4.63C25.9,113.51,26.21,113.25,31.08,115Z"/><path class="cls-261" d="M27,123c1.28,3.71,1.91,7.42,0,11.12C25.84,130.38,25,126.67,27,123Z"/><path class="cls-262" d="M27,134c1.66,4.6,1.45,6.34-.94,7.89C26.46,139.24,24.93,136.39,27,134Z"/><path class="cls-263" d="M36,113.89l1.82,1.79c-2.37.59-4.7.75-6.89-.63C32.28,113.08,34.38,114.48,36,113.89Z"/><path class="cls-264" d="M27.91,185.1c0,1.78.7,3.7-.94,5.18C25.83,188.29,24.56,186.28,27.91,185.1Z"/><path class="cls-265" d="M26.07,197.11c2.52,0,2.74,1.12.94,4.8C25.08,200.63,26.36,198.72,26.07,197.11Z"/><path class="cls-266" d="M127.52,197.3c2.26,1.79,1.73,3.44,1.12,5.22C126.39,201.27,127,199.51,127.52,197.3Z"/><path class="cls-267" d="M128.11,226.11c-1.43-2.53-1.4-5.1-.3-9.06,1.51,3.87,2.26,6.4.22,9Z"/><path class="cls-268" d="M69.08,192.91,69,191a2.81,2.81,0,0,1,1,0c1.59.64,4-.4,4.82,1.25,1.25,2.45-2.2,2.78-2.78,4.55a3.13,3.13,0,0,1-.93.29C68.22,196.76,69,194.68,69.08,192.91Z"/><path class="cls-269" d="M69.08,192.91c2,.76.14,3.37,2,4.21a3.69,3.69,0,0,1-4.2.69c.71-2.76-1.66-1.95-2.87-2.48C65.21,193.5,66.6,192.06,69.08,192.91Z"/><path class="cls-270" d="M78.06,195.88a9.19,9.19,0,0,0-.32-1.43c-.52-1.32-1.47-2.57-.79-4.06.12-.25,1-.42,1.33-.27,2.23.93-.14,2.95.93,4.19C79.34,195.21,79.41,196.07,78.06,195.88Z"/><path class="cls-271" d="M88,169c-5.12,5-8.25,5.58-14.43,2.86-2.54-1.12-5.37-1.64-7.47-3.65,4.08-1.43,8.3-.33,12.44-.67C81.64,168.63,85.1,167.1,88,169Z"/><path class="cls-272" d="M88,169c-3-.34-6.13.55-9-1q-.42-.22-.34-.51t.21-.32L90,167.05C90.79,169.15,89,168.72,88,169Z"/><path class="cls-273" d="M78.9,167.22A7.83,7.83,0,0,1,79,168l-12.89.18-.92-1.07Z"/><path class="cls-274" d="M86.84,144.15c1.33,0,2.67-.05,4,0,1.09.06,2.6-.4,2.88,1.18.24,1.35-1,1.43-2,1.58A1.52,1.52,0,0,0,90.27,148c-1.4,4-2.28,4.05-5.65,1.35-1.35-1.08-1.64-3.23-4-3.43-1-.08-.42-1.69.78-1.79,1.82-.15,3.66,0,5.49,0Z"/></g></g></svg>