<?xml version="1.0"?>
<svg xmlns:rdf="http://www.w3.org/1999/02/22-rdf-syntax-ns#" xmlns="http://www.w3.org/2000/svg" xmlns:cc="http://creativecommons.org/ns#" xmlns:xlink="http://www.w3.org/1999/xlink" xmlns:dc="http://purl.org/dc/elements/1.1/" xmlns:svg="http://www.w3.org/2000/svg" id="svg2" viewBox="0 0 434.08 530.9" version="1.1">
  <defs id="defs4">
    <linearGradient id="linearGradient4110" y2="601.68" gradientUnits="userSpaceOnUse" y1="601.68" x2="322.47" x1="237.42">
      <stop id="stop4177" stop-color="#a2a2a2" offset="0"/>
      <stop id="stop4179" stop-color="#b3b3b3" offset=".5"/>
      <stop id="stop4181" stop-color="#cbcbcb" offset="1"/>
    </linearGradient>
    <filter id="filter4165" y="-.25184" width="2.1223" x="-.56114" height="1.5037">
      <feGaussianBlur id="feGaussianBlur4167" stdDeviation="31.493904"/>
    </filter>
    <clipPath id="clipPath4171" clipPathUnits="userSpaceOnUse">
      <path id="path4173" fill-rule="evenodd" fill="#f60" d="m232.31 458.51c-78.36 22.68-191.94 14.36-200.74-31.01-8.809-45.37 28.17-142.93 34.333-178.47 6.1631-35.543 19.187-65.505 21.46-73.042 2.2074-7.3203 10.996-35.856 29.606-35.1 32.553 1.2951 86.283-0.75622 98.609-1.5125 12.326-0.75624 30.815 3.7812 27.294 9.0748-3.5218 5.2936-73.957 52.936-69.555 132.34 4.4022 79.405 46.663 155.03 59.87 165.62 13.207 10.587-1.7609 12.856-0.88044 12.1z"/>
    </clipPath>
    <linearGradient id="linearGradient5167" y2="601.94" gradientUnits="userSpaceOnUse" y1="601.94" x2="321.95" x1="237.92">
      <stop id="stop5163" stop-color="#fff" offset="0"/>
      <stop id="stop5165" stop-color="#fff" stop-opacity="0" offset="1"/>
    </linearGradient>
  </defs>
  <g id="layer2" transform="translate(-169.73 -263.43)">
    <path id="path2484" fill-rule="evenodd" d="m204.94 735.93c-42.474-33.979-39.289-44.598-27.608-95.567 11.68-50.969 54.155-224.05 58.402-245.29 4.2474-21.237 21.237-65.835 73.268-71.144 52.031-5.3093 108.31-15.928 134.86-8.4948 26.546 7.433 51.845 7.4633 51.845 35.072 0 27.608 3.3712 132.7 3.3712 132.7l2.1237 89.196s64.773 127.42 65.835 148.66c1.0618 21.237-2.1237 43.536-32.917 49.907-30.794 6.3711-58.402 23.361-86.01 23.361s-190.07-5.3093-243.16-58.402z"/>
    <path id="path2474" fill-rule="evenodd" fill="#343434" d="m386.01 282.46 50.551 6.3475s10.201-20.271 3.3117-22.391c-2.3449-0.7215-11.453-3.0401-19.512-2.8483-15.619 0.37186-33.993 6.9079-34.35 18.891z"/>
    <path id="path2476" fill-rule="evenodd" d="m420.36 313.12c10.001-0.19193 17.73 0.56906 25.463 3.551 0 0 12.598-15.27 6.7682-30.639-5.8296-15.369-11.809-19.004-11.809-19.004s3.7027 5.87-4.9921 22.443c-3.5197 6.7089-7.3359 13.112-15.43 23.649z"/>
    <path id="path2478" fill-rule="evenodd" d="m360.72 317.8c8.2337-48.091 39.343-57.548 63.106-53.54-19.117 0.0355-35.547 4.4982-37.975 19.692-3.7098 23.319-4.2136 31.369-4.2136 31.369l-20.917 2.4792z"/>
    <path id="path2480" fill-rule="evenodd" fill="#f60" d="m402.68 717.7c-80.718 27.208-197.71 17.232-206.78-37.185-9.0695-54.417 29.022-171.41 35.371-214.04 6.3486-42.627 19.765-78.559 22.106-87.599 2.2739-8.7791 11.327-43.002 30.497-42.095 33.533 1.5532 88.881-0.90694 101.58-1.8139 12.697-0.90695 31.743 4.5347 28.115 10.883-3.6278 6.3486-76.184 63.486-71.649 158.72 4.5347 95.23 48.068 185.92 61.672 198.62 13.604 12.697-1.8139 15.418-0.90695 14.511z"/>
    <path id="path4099" d="m234.74 316.1a67.35 150.07 0 1 1 -134.7 0 67.35 150.07 0 1 1 134.7 0z" clip-path="url(#clipPath4171)" transform="matrix(1.0301 0 0 1.1993 163.38 167.82)" filter="url(#filter4165)" fill="#ff812a"/>
    <path id="path5110" fill-rule="evenodd" style="block-progression:tb;color:#000000;text-transform:none;text-indent:0" fill="#868686" d="m280.68 467.95c-9.6188-0.0399-17 8.537-17.38 17.8-12.773 64.697-23.757 130.02-27.007 195.97-0.55058 13.663-1.6554 25.205-0.75347 38.856 36.208 15.021 47.434 11.536 87.848 11.586-20.407-34.262-26.907-73.809-30.395-112.93-3.5779-44.486-1.6701-89.206 2.0908-133.61 0.80865-8.5658-4.8952-18.292-14.403-17.671z"/>
    <path id="path2482" fill-rule="evenodd" fill="url(#linearGradient4110)" d="m237.94 721.99c-5.4417-83.439 27.796-238.28 27.796-238.28 2.4452-15.58 29.423-20.304 29.022 3.6278-0.16978 10.139-19.046 166.88 27.208 243.06-49.567 7.0822-70.726-4.4116-84.027-8.4097z"/>
    <path id="path2486" fill-rule="evenodd" fill="#4a4a4a" d="m413.8 343.21c-0.50592 1.5394-1.1347 3.0788-2.1326 4.6182 0 0 5.0852 7.0956 8.6723 20.639 3.5871 13.544 7.125 29.206 7.125 36.719 0 7.7445-1.7367 47.656-3.2188 114.06-1.482 66.406-2.687 159.49-1.625 274.19l3-0.0312c-1.0617-114.66 0.14355-207.71 1.625-274.09s3.2188-105.94 3.2188-114.12c0-8.4155-3.6443-23.886-7.25-37.5s-9.4147-24.476-9.4147-24.476z"/>
    <path id="path4326" fill-rule="evenodd" style="block-progression:tb;color:#000000;text-transform:none;text-indent:0" fill="#c8c8c8" d="m295.8 365.31c-3.8591-0.29722-6.9894 3.6415-7.8326 6.8471-6.4524 14.242-11.208 29.175-16.045 44.022-1.3126 2.031-0.16162 5.1572 2.3188 5.5009 12.559 0.77809 21.314 1.3296 33.895 1.6722 4.3023 0.49999 10.363-4.0207 10.225-7.6964 5.4128-16.223 11.273-30.706 17.671-45.165 1.7321-4.0262-3.2666-5.0711-6.2297-4.8475-12.117-0.3203-21.884-0.11687-34.002-0.33341z"/>
    <path id="path3259" fill-rule="evenodd" style="block-progression:tb;color:#000000;text-transform:none;text-indent:0" fill="#7d7d7d" d="m296.06 366.13c12.539 0.29686 20.878-0.0338 33.412 0.45366 2.7028-0.48439 3.8688 1.4384 2.211 3.5694-5.0841 11.098-10.462 25.622-13.772 33.928-3.3093 8.3058-5.4255 16.753-11.656 15.611-11.843-0.34745-20.964-0.89286-32.791-1.5836-2.9358-0.90729 0.10612-4.6072 0.29145-6.6434 4.5614-13.637 8.9562-27.391 15.021-40.453 0.8267-2.5596 3.2557-5.7159 7.2826-4.8818z"/>
    <path id="path3261" style="block-progression:tb;color:#000000;text-transform:none;text-indent:0" fill="#4a4a4a" d="m499.72 572.09-0.90625 2.9375s-0.60882 2.0878-5.0938 11.156c-4.4849 9.0684-12.802 24.956-28.031 52.25-20.144 36.103-30.579 50.879-35.875 67.375-5.2957 16.496-5.2812 34.292-4.6875 76.25l0.0312 1.3125 1.2812 0.15625 36.25 4.9062c0.54599 0.2092 1.0977 0.30539 1.6875 0.25 0.0209-0.002 0.0417 0.002 0.0625 0 0.19849-0.0218 0.40212 0.0203 0.59375-0.0312l-0.1875-2.9375-1.2812-0.1875c-0.16847-0.18023-0.4266-0.50734-0.625-1.2812-0.44355-1.7301-0.50211-4.8721-0.0625-9 0.87922-8.2557 3.6672-20.547 8.1562-35.25 8.9781-29.407 24.742-68.568 45.562-105.62 2.4072-4.2844 3.7453-7.2108 4.375-9.4688 0.62971-2.258 0.48646-3.9946-0.1875-5.3125s-1.5954-2.0794-2.3125-2.9688c-0.68773-0.85296-1.2662-1.8722-1.625-3.6562 0.92289-3.1121 0.37892-6.8015-0.8125-10.719-1.2691-4.1727-3.2831-8.6042-5.4375-12.688-4.3088-8.1667-9.125-14.969-9.125-14.969l-1.75-2.5zm0.78125 6.4375c1.5357 2.2745 4.31 6.4786 7.4375 12.406 2.1001 3.9804 4.0703 8.3088 5.25 12.188 1.1797 3.8787 1.47 7.2936 0.6875 9.4062l-0.125 0.40625 0.0625 0.375c0.4398 2.4189 1.3941 4.0485 2.3125 5.1875 0.91838 1.139 1.6822 1.8161 2 2.4375 0.3178 0.62144 0.47863 1.328-0.0312 3.1562-0.50988 1.8283-1.7737 4.6277-4.125 8.8125-20.946 37.279-36.765 76.585-45.812 106.22-4.5237 14.817-7.3649 27.208-8.2812 35.812-0.45819 4.3023-0.46689 7.6318 0.15625 10.062 0.006 0.0239 0.025 0.0388 0.0312 0.0625l-31.95-4.3c-0.57138-40.886-0.47955-58.325 4.5625-74.031 5.1021-15.893 15.436-30.63 35.625-66.812 15.245-27.322 23.575-43.269 28.094-52.406 3.4969-7.0706 3.7074-7.9382 4.0938-8.9688z"/>
    <path id="path3263" fill-rule="evenodd" d="m483.8 327.62s30.988 7.589 38.577 12.648c7.589 5.0593 24.032 44.901 24.032 44.901s-8.2214 104.98 6.3242 139.76c14.546 34.783 39.21 108.78 39.21 108.78l10.751 25.929s0.63241-15.178-7.589-8.2214-8.8538 16.443-20.87 2.5297c-12.01-13.92-75.26-132.82-73.36-186.57 1.9-53.76-15.81-141.03-17.07-139.76z"/>
    <path id="path3267" fill-rule="evenodd" fill="#a3a3a3" d="m543.91 672.95 5.3786 11.654s8.7402-9.6366 13.222-7.6197c4.4822 2.017 0-10.309-18.601-4.034z"/>
    <path id="path3265" fill-rule="evenodd" fill="#6e6e6e" d="m538.76 661.52c5.6027 13.446 5.8268 11.878 5.8268 11.878s11.878-3.8098 16.136-0.67233 21.963 17.256 21.963 17.256-26.445-31.599-43.925-28.462z"/>
    <path id="path3269" fill-rule="evenodd" fill="#383838" d="m556.24 665.33c12.55-12.998 19.722-8.292 19.722-8.292s0.44822 5.6027 6.7232 4.0339 4.4822-6.4991 10.309-6.0509c5.8268 0.44821-14.791 17.705-20.842 23.531-6.0509 5.8268-17.032-12.55-17.032-12.55l1.1205-0.67232z"/>
    <path id="path3271" fill-rule="evenodd" d="m553.55 680.12c0.89643 1.3446 4.4822 4.7063 8.292 3.3616 3.8098-1.3446-2.6893 8.9643 3.5857 10.085 6.275 1.1205 24.652 2.2411 20.618-4.4822-4.0339-6.7232-4.4822-19.049 0.67233-21.963 5.1545-2.9134-0.44822 7.1715 5.6027 5.8268 6.0509-1.3446 17.705-5.8268 7.3956-23.98-4.8175-8.4829-8.7577 10.923-18.336 19.973-5.1303 4.8474-14.24 8.2098-18.506 8.1939-6.3282-0.0237-9.0698 2.9206-9.3244 2.9842z"/>
    <path id="path5149" fill-rule="evenodd" fill="url(#linearGradient5167)" d="m285.39 471.21c3.9492 2.3028 6.7882 7.0606 6.6562 14.938-0.16978 10.139-19.036 166.88 27.219 243.06-46.366 6.6248-67.872-2.9875-81.344-7.5312 0.007 0.10311 0.0245 0.20961 0.0312 0.3125 13.301 3.9981 34.433 15.488 84 8.4062-46.254-76.184-27.357-232.92-27.188-243.06 0.1606-9.5898-4.0831-14.593-9.375-16.125z"/>
  </g>
  <g id="layer4" transform="translate(-169.73 -263.43)">
    <path id="path4094" fill="#7d7d7d" d="m271.14 519.56c-4.3458-0.49194-4.3407 4.7642-4.7957 7.613-10.303 64.497-11.124 94.228-12.001 115.22 1.1386 9.0252 25.005 3.6828 23.987-1.1346-4.4385-35.27-4.3145-87.543 1.647-114.66 0.78656-3.5781 2.7272-6.8146-1.286-6.7704-2.516-0.1095-5.0313-0.27251-7.551-0.26527z"/>
    <path id="path5169" fill="#8f8f8f" d="m269.34 518.77c-4.3458-0.49194-4.3407 4.7642-4.7957 7.613-10.303 64.497-11.124 94.228-12.001 115.22 1.1386 9.0252 25.005 3.6828 23.987-1.1346-4.4385-35.27-4.3145-87.543 1.647-114.66 0.78656-3.5781 2.7272-6.8146-1.286-6.7704-2.516-0.1095-5.0313-0.27251-7.551-0.26527z"/>
  </g>
  <metadata>
    <rdf:RDF>
      <cc:Work>
        <dc:format>image/svg+xml</dc:format>
        <dc:type rdf:resource="http://purl.org/dc/dcmitype/StillImage"/>
        <cc:license rdf:resource="http://creativecommons.org/licenses/publicdomain/"/>
        <dc:publisher>
          <cc:Agent rdf:about="http://openclipart.org/">
            <dc:title>Openclipart</dc:title>
          </cc:Agent>
        </dc:publisher>
        <dc:title>Rucksack</dc:title>
        <dc:date>2012-06-16T09:21:57</dc:date>
        <dc:description>backpack, bag, baggage, clip art, clipart, luggage, rucksack, school, travel, traveler, </dc:description>
        <dc:source>http://openclipart.org/detail/170715/rucksack-by-rdevries-170715</dc:source>
        <dc:creator>
          <cc:Agent>
            <dc:title>rdevries</dc:title>
          </cc:Agent>
        </dc:creator>
        <dc:subject>
          <rdf:Bag>
            <rdf:li>backpack</rdf:li>
            <rdf:li>bag</rdf:li>
            <rdf:li>baggage</rdf:li>
            <rdf:li>clip art</rdf:li>
            <rdf:li>clipart</rdf:li>
            <rdf:li>luggage</rdf:li>
            <rdf:li>rucksack</rdf:li>
            <rdf:li>school</rdf:li>
            <rdf:li>travel</rdf:li>
            <rdf:li>traveler</rdf:li>
          </rdf:Bag>
        </dc:subject>
      </cc:Work>
      <cc:License rdf:about="http://creativecommons.org/licenses/publicdomain/">
        <cc:permits rdf:resource="http://creativecommons.org/ns#Reproduction"/>
        <cc:permits rdf:resource="http://creativecommons.org/ns#Distribution"/>
        <cc:permits rdf:resource="http://creativecommons.org/ns#DerivativeWorks"/>
      </cc:License>
    </rdf:RDF>
  </metadata>
</svg>
