<?xml version="1.0"?>
<svg xmlns:rdf="http://www.w3.org/1999/02/22-rdf-syntax-ns#" xmlns="http://www.w3.org/2000/svg" xmlns:cc="http://web.resource.org/cc/" xmlns:xlink="http://www.w3.org/1999/xlink" xmlns:dc="http://purl.org/dc/elements/1.1/" xmlns:svg="http://www.w3.org/2000/svg" id="svg2" viewBox="0 0 550 400" version="1.0">
  <defs id="defs5">
    <linearGradient id="linearGradient2301" y2="148" gradientUnits="userSpaceOnUse" y1="264.5" x2="268" x1="286">
      <stop id="stop2297" stop-color="#582b04" offset="0"/>
      <stop id="stop2299" stop-color="#f96122" offset="1"/>
    </linearGradient>
    <linearGradient id="linearGradient2309" y2="269" gradientUnits="userSpaceOnUse" y1="123.5" x2="185" x1="139">
      <stop id="stop2305" stop-color="#e35a1c" offset="0"/>
      <stop id="stop2307" stop-color="#5c2c06" offset="1"/>
    </linearGradient>
    <linearGradient id="linearGradient2317" y2="138.5" gradientUnits="userSpaceOnUse" y1="84.5" x2="344.5" x1="245">
      <stop id="stop2313" stop-color="#f35f21" offset="0"/>
      <stop id="stop2315" stop-color="#dd571a" offset="1"/>
    </linearGradient>
    <linearGradient id="linearGradient2325" y2="252" gradientUnits="userSpaceOnUse" y1="276" x2="423.5" x1="299">
      <stop id="stop2321" stop-color="#56210b" offset="0"/>
      <stop id="stop2323" stop-color="#d9551c" offset="1"/>
    </linearGradient>
    <linearGradient id="linearGradient2333" y2="91" gradientUnits="userSpaceOnUse" y1="98" x2="150.57" x1="148">
      <stop id="stop2337" stop-color="#873817" offset="0"/>
      <stop id="stop2339" stop-color="#f26f37" offset="1"/>
    </linearGradient>
    <radialGradient id="radialGradient2219" gradientUnits="userSpaceOnUse" cy="284.43" cx="246.15" gradientTransform="matrix(.87211 -.0047844 .0024512 .44654 30.782 146.85)" r="253.05">
      <stop id="stop2215" stop-color="#6f6f6f" offset="0"/>
      <stop id="stop2217" stop-color="#b3b3b3" stop-opacity="0" offset="1"/>
    </radialGradient>
  </defs>
  <path id="path2211" transform="translate(29.708 -16.976)" fill="url(#radialGradient2219)" d="m513.53 260.48a253.05 128.91 0 1 1 -506.1 0 253.05 128.91 0 1 1 506.1 0z"/>
  <path id="path2284" d="m371.75 153.03c-0.18 1.23-0.29 2.55-0.5 3.72-0.52 2.92-1.12 5.67-1.81 8.31s-1.48 5.15-2.32 7.56c-0.83 2.42-1.73 4.76-2.68 7-1.91 4.5-4.03 8.72-6.22 12.88-2.2 4.16-4.47 8.25-6.72 12.5-1.12 2.12-2.74 4.63-4.75 7.41s-4.4 5.84-7.13 9.12c-2.72 3.28-5.76 6.76-9.03 10.38-3.26 3.61-6.76 7.36-10.4 11.15-7.28 7.6-15.15 15.39-22.91 22.75-6.48 6.16-12.68 11.69-18.62 16.88 1.35-0.11 2.87-0.11 4.18-0.25 7.1 3.52 13.93 7.47 21 10.97 21.85 10.8 44.81 20.61 69.19 23.62 19.91 2.46 38.41-4.38 54.13-21.44 10.76-11.68 14.91-28.83 20.28-43.68 2.2-6.09 2.74-13.22 4.56-19.75 0.34-0.35 1.19-1.15 1.59-1.54 1.1-3.32 2.26-6.78 3.63-10.06 0.81-1.93 1.68-3.8 2.56-5.5s1.78-3.25 2.72-4.56c1.88-2.62 3.64-4.81 5.38-6.66 1.73-1.84 3.43-3.34 5.24-4.59 1.48-1.02 3.07-1.79 4.72-2.53-4.83-8.73-20.37-13.65-33.28-16.94-14.95-3.81-31.39-10.73-46.94-16.5-10.04-3.73-19.34-7.97-25.87-10.25z" stroke="#a00" stroke-linecap="round" stroke-width=".25" fill="url(#linearGradient2325)"/>
  <path id="path2293" d="m477.84 196.72c-1.65 0.74-3.24 1.51-4.72 2.53-1.81 1.25-3.51 2.75-5.24 4.59-1.74 1.85-3.5 4.04-5.38 6.66-0.94 1.31-1.84 2.86-2.72 4.56s-1.75 3.57-2.56 5.5c-1.37 3.28-4.08 8.13-5.17 11.46 7.44-7.15 25.53-22.83 27.29-30.86-0.17-1.59-0.73-3.06-1.5-4.44z" stroke="#d40000" stroke-linecap="round" stroke-width=".25" fill="#343232"/>
  <path id="path2290" d="m148.53 93.781c-2.86-0.054-7.36-0.141-9.47-0.187-11.36 11.246-18.47 19.796-25.72 34.346-12.92 25.94-19.611 50.59-16.059 79.72 2.153 17.65 13.119 36.27 22.529 50.68 7.14 10.93 15.92 21.87 28.66 25.63 17.45 5.15 35.59 2.47 53.62 2.31 15.39-0.13 35.1-4.24 50.32-3.34 9.94 0.59 18.42 0.38 26.25-0.25 4.08-3.57 8.47-7.61 12.81-11.6-1.43-0.82-2.83-1.71-4.31-2.43-2.36-1.16-4.72-2.3-6.85-3.82-9.57-6.84-19-13.93-28.22-21.28-4.6-3.67-9.16-7.4-13.65-11.22s-8.92-7.71-13.28-11.68c-2.2-2-4.32-4.09-6.35-6.22-2.03-2.14-3.98-4.34-5.87-6.6-3.79-4.51-7.33-9.23-10.69-14.09s-6.55-9.86-9.66-14.91c-3.11-5.04-6.12-10.12-9.15-15.18-3.16-5.27-6.63-11.56-10.19-18.38s-7.2-14.18-10.78-21.56c-5.26-10.86-9.64-20.52-13.94-29.939z" stroke="#f00" stroke-linecap="round" stroke-width=".25" fill="url(#linearGradient2309)"/>
  <path id="path2287" d="m148.53 93.781c4.3 9.419 8.68 19.079 13.94 29.939 3.58 7.38 7.22 14.74 10.78 21.56s7.03 13.11 10.19 18.38c3.03 5.06 6.04 10.14 9.15 15.18 3.11 5.05 6.3 10.05 9.66 14.91s6.9 9.58 10.69 14.09c1.89 2.26 3.84 4.46 5.87 6.6 2.03 2.13 4.15 4.22 6.35 6.22 4.36 3.97 8.79 7.86 13.28 11.68s9.05 7.55 13.65 11.22c9.22 7.35 18.65 14.44 28.22 21.28 2.13 1.52 4.49 2.66 6.85 3.82 1.48 0.72 2.88 1.61 4.31 2.43 1.97-1.81 3.78-3.35 5.81-5.28 7.76-7.36 15.63-15.15 22.91-22.75 3.64-3.79 7.14-7.54 10.4-11.15 3.27-3.62 6.31-7.1 9.03-10.38 2.73-3.28 5.12-6.34 7.13-9.12s3.63-5.29 4.75-7.41c2.25-4.25 4.52-8.34 6.72-12.5 1.11-2.11 2.1-4.36 3.16-6.53-2.75-3.55-5.61-7.17-8.94-10.85-4.2-4.64-8.71-9.25-13.1-13.53-4.38-4.27-8.64-8.2-12.37-11.47-3.74-3.26-6.94-5.84-9.19-7.46-6.57-4.76-12.21-8.97-17.47-12.75-5.25-3.79-10.12-7.16-15.12-10.22-2.5-1.53-5.05-2.98-7.69-4.38-2.64-1.39-5.38-2.71-8.28-4-2.91-1.29-5.98-2.53-9.28-3.75-3.31-1.21-6.85-2.39-10.69-3.56-4.05-1.24-7.9-2.34-11.69-3.28-3.79-0.942-7.52-1.741-11.31-2.439-3.79-0.697-7.64-1.276-11.69-1.781s-8.27-0.918-12.84-1.281c-5.2-0.414-19.4-0.775-33.6-1.063-8.27-0.167-13.67-0.263-19.59-0.375z" stroke="#d40000" stroke-linecap="round" stroke-width=".25" fill="url(#linearGradient2301)"/>
  <path id="path2161" d="m240.91 63.344c-18.24-0.241-36.51 1.715-54.66 4.375-14.29 2.093-23.97 11.432-36.75 18.281-9.5 5.142-3.93 1.942-4.25 2.688-0.14 0.329-1.45 1.445-5.69 4.374-0.18 0.184-0.31 0.35-0.5 0.532 6.49 0.142 16.8 0.314 29.06 0.562 14.2 0.288 28.4 0.649 33.6 1.063 4.57 0.363 8.79 0.776 12.84 1.281s7.9 1.084 11.69 1.781c3.79 0.698 7.52 1.497 11.31 2.439 3.79 0.94 7.64 2.04 11.69 3.28 3.84 1.17 7.38 2.35 10.69 3.56 3.3 1.22 6.37 2.46 9.28 3.75 2.9 1.29 5.64 2.61 8.28 4 2.64 1.4 5.19 2.85 7.69 4.38 5 3.06 9.87 6.43 15.12 10.22 5.26 3.78 10.9 7.99 17.47 12.75 2.25 1.62 5.45 4.2 9.19 7.46 3.73 3.27 7.99 7.2 12.37 11.47 4.39 4.28 8.9 8.89 13.1 13.53 3.33 3.68 6.19 7.3 8.94 10.85 1.02-2.11 2.12-4.13 3.06-6.35 0.95-2.24 1.85-4.58 2.68-7 0.84-2.41 1.63-4.92 2.32-7.56s1.29-5.39 1.81-8.31c0.21-1.17 0.32-2.49 0.5-3.72-0.29-0.1-0.73-0.31-1-0.41-2.83-13.36-18.86-29.7-26.75-41.65-11.47-17.383-28.61-31.893-48.69-38.782-17.96-6.165-36.16-8.604-54.4-8.844z" stroke="#d40000" stroke-linecap="round" stroke-width=".25" fill="url(#linearGradient2317)"/>
  <path id="path2327" d="m583 230.5c17.5 4.5 29.62 14.88 56.5 21s53.26 11.09 71.5-12c23.8-30.12 18.08-63.04 40.5-86 13-13.31 15-8.5 15-8.5" transform="translate(-295.5,45)" stroke="#d40000" stroke-linecap="round" stroke-dasharray="3.45, 3.45" stroke-width="1.15" fill="none"/>
  <path id="path2329" d="m594 220c12.5 6 47.93 20.98 74.5 22.5 35 2 46-24 51-48s12.5-52.5 32.5-56" transform="translate(-295.5,45)" stroke="#d40000" stroke-linecap="round" stroke-dasharray="3.45, 3.45" stroke-width="1.15" fill="none"/>
  <path id="path2331" d="m602 215c17.5 5.5 59 23 75.5 18s27.99-31.95 32-50.5c4-18.5 12-35.5 18.5-40.5s10.68-7.45 10.68-7.45" transform="translate(-295.5,45)" stroke="#d40000" stroke-linecap="round" stroke-dasharray="3.45, 3.45" stroke-width="1.15" fill="none"/>
  <path id="path2272" d="m151 85c2.37-0.731 5.75 0.377 8 1.5 2.24 1.119 2.5 3.836 2.5 6.5 0 2.609-1.93 5.426-3.5 7-2.11 2.11-2.86 2.68-5.5 4-1.79 0.89-4.53 1.01-6.5 1.5-1.98 0.5-5.39-4.78-6-6-1.07-2.141 0.59-5.69 1-6.5 1.42-2.832 3.5-4.005 5-5.5 1.81-1.814 2.18-2.5 5-2.5z" stroke="#d40000" stroke-linecap="round" stroke-width=".25" fill="url(#linearGradient2333)"/>
  <g id="g603" stroke-linejoin="round" transform="matrix(.0054140 -.0049972 -.0068351 -.0074052 329.21 211.09)" stroke="#000" stroke-width="15.846" fill="#e9e000">
    <path id="path604" d="m4220 3558c-317-15-668-102-985-243-152-68-250-118-278-143-9-8-26-20-36-26-50-28-222-149-271-191-77-65-295-280-355-350-27-31-57-65-65-74-9-9-33-38-55-65s-62-77-89-110c-64-79-59-71-111-141-275-363-326-429-334-435-4-3-22-25-41-50s-46-58-61-75c-15-16-61-68-102-115-175-197-439-420-499-420-7 0 17 30 53 68 92 94 254 281 331 382 57 75 208 303 208 315 0 2 24 46 54 97 29 51 62 111 73 133 15 33 66 123 178 317 27 46 128 206 148 233 98 132 194 243 294 341 79 77 104 115 66 99-99-41-192-45-290-13-65 21-67 21-77 3-6-10-29-39-51-63-115-129-309-114-371 29-10 21-22 39-26 39-8 0-87-48-98-60-10-10-86-52-145-80-103-48-459-208-489-220-51-19-218-121-297-181-41-31-99-83-128-115-169-185-158-449 23-541 82-41 173-36 316 20 30 12 57 24 60 27 3 4 25 16 50 29 103 52 233 177 290 276 41 72 70 166 70 228 0 124-112 190-238 139-101-42-196-139-217-225-8-32 14-38 36-10 36 43 148 58 189 25 79-64-21-250-173-321-137-64-243-45-294 53-21 41-13 146 17 209 40 84 165 199 290 265 118 62 222 85 355 79 60-3 127-10 148-17 115-34 184-184 158-337-5-32-12-74-15-94-5-32-61-199-85-254-53-118-87-186-127-252-90-148-157-252-181-280-10-11-25-31-33-44s-53-63-100-112-86-92-88-97c-3-7-112-99-157-132-5-5-29-23-51-41-54-44-130-80-227-108-92-27-110-47-80-88 30-40 75-52 175-46 78 5 111 12 173 34 11 4 86 40 167 80 204 101 353 214 578 440 97 97 207 217 245 267 39 51 116 150 173 220 222 278 279 350 340 428 133 173 381 426 551 562 121 96 271 203 334 236 23 13 44 25 47 28 7 8 180 82 275 119 403 154 874 135 1150-46 27-18 54-33 60-33s31 21 55 46c148 152 509 220 711 134 82-35 79-34 79-17 0 45-404 203-593 231-223 34-408 44-607 34z"/>
    <path id="path605" d="m7455 3278c-33-5-111-16-172-25-62-8-113-20-113-25s7-19 16-33c14-22 14-27-6-71-12-26-53-98-91-160-56-90-75-114-97-118-92-17-233-37-246-34-12 2-5 20 29 77 25 40 45 75 45 77 0 3 15 28 34 57 18 28 47 74 65 102 32 51 37 82 11 78-8-1-49-7-90-12-289-38-286-37-257-69 9-10 17-31 17-46 0-27-127-272-156-301-8-7-43-17-79-20-35-4-71-12-79-19-23-18-84-144-74-154 5-5 33-5 65 0 30 5 57 7 58 6 2-2-13-30-33-63-136-225-407-474-596-549-133-53-204-58-247-15-30 30-20 50 36 72 288 114 431 211 530 359 48 73 53 111 25 191-22 61-24 64-69 77-102 31-236 0-336-76-53-40-181-110-217-118-22-5-29-15-38-49-29-113-182-350-293-453-110-103-250-166-399-180-76-7-77-6-107 23-75 75-43 207 88 363 122 147 266 241 344 226 93-17 51-141-71-213-50-29-83-26-100 12-16 35-32 32-79-17-70-74-82-125-39-175 20-24 32-28 73-28 58 1 105 22 198 91 231 170 293 362 145 448-27 16-51 21-106 20-67-1-77-4-179-60-141-77-142-78-162-96-26-23-92-54-140-67-38-10-44-17-68-69-27-59-73-109-192-207-67-55-113-73-98-37 62 141 60 259-6 319-52 47-90 59-152 51-70-9-139-42-221-106-85-66-105-78-167-96-53-16-55-17-103-104-157-278-314-481-401-518-53-22-90-18-114 12-12 15-21 34-21 43 0 36 23 95 46 118 13 13 35 45 48 71 30 59 76 134 146 239 38 56 70 91 105 114 183 120 457 388 573 559 73 108 95 163 96 240 1 81-25 129-88 159-105 51-185 17-429-183-48-39-80-58-108-62-45-8-56-19-38-40 7-8 12-36 12-62 1-40-10-65-72-172-77-132-125-211-257-418-44-70-102-164-129-209-147-250-356-452-545-526-98-38-123-41-150-19-36 29-20 56 58 92 144 67 225 123 328 225 113 113 144 166 151 260 6 81-16 117-83 135-42 12-56 11-117-4-38-10-86-29-106-42-39-25-118-83-136-99-31-29-78-56-105-62-29-5-80-61-80-87 0-14-134-236-182-301-57-76-174-197-258-265-85-69-221-135-356-171-124-33-143-46-128-86 8-25 15-28 56-31 54-4 195 28 277 61 66 27 242 140 300 192 41 37 61 39 61 5 0-11 19-40 43-65 43-44 45-45 109-45 56 0 76 6 156 45 123 59 236 134 359 239 56 47 104 86 107 86 2 0 2-35-1-77-5-75-4-80 26-119 59-79 162-81 308-8 76 38 275 190 293 223 14 27 30 27 30 1 0-32 36-95 70-123 65-55 150-48 300 25 93 46 116 63 200 147 53 53 128 142 168 198 60 83 79 103 105 108 18 4 56 20 86 36s56 27 59 24c2-2-12-44-31-92-46-114-51-141-37-205 39-186 240-173 595 40 86 52 162 108 223 166l52 50v-56c0-69 12-103 50-139 71-68 162-61 337 26 146 74 300 178 466 316 21 17 40 30 42 27 3-2-4-30-15-61-54-153 0-237 138-217 86 12 149 43 292 146 82 59 123 84 134 84 3 0 6-7 6-16s8-32 17-51c23-49 85-77 151-67 103 15 257 100 432 238l85 68 6-54c8-68 24-94 77-119 56-27 116-22 197 16 62 30 349 198 375 220 71 61 435 256 550 295 67 23 143 26 180 7 32-16 70-73 70-105 0-91-202-255-432-349-237-97-567-181-1068-273-124-23-259-48-300-56s-268-53-505-99c-236-46-452-89-480-95-124-27-510-102-610-120-60-11-254-49-430-85s-363-74-415-85c-345-69-1029-212-1175-245-60-13-186-41-280-60-93-20-231-49-305-65s-211-45-305-65c-93-20-237-50-320-66-124-25-438-93-755-164-456-101-801-203-1015-300-16-8-47-21-68-29-23-9-37-21-34-28 5-16 5-16 146 21 174 46 272 56 521 56 159-1 260-6 345-18 245-36 460-86 540-127 22-11 45-20 52-20 8 0 68 27 136 59 148 72 423 163 637 212 122 27 197 46 350 89 119 33 189 52 430 115 148 39 248 66 275 74 17 6 131 35 255 66 224 56 325 82 450 116 203 55 651 175 745 199 294 76 400 104 645 170 146 39 324 87 395 106 72 18 189 50 260 69 72 20 146 40 165 44 19 5 96 25 170 46 74 20 167 45 205 55 39 11 97 26 130 35s78 21 100 26c22 6 85 23 140 39 95 28 472 126 525 137 14 3 77 20 140 38s138 38 165 46c45 11 167 55 220 79 11 5 51 23 88 39 127 56 299 172 367 247 141 156 177 311 87 377-60 46-79 51-167 50-140-1-264-47-640-236-322-163-366-180-439-174-46 3-59 9-84 37-36 41-32 45 81 84 331 114 523 245 588 402 21 49 18 123-6 162-66 109-264 73-515-94-44-29-93-56-110-60-16-4-36-14-43-23-20-24-113-166-171-261-78-126-129-189-203-255-144-128-258-153-258-57 0 46 24 99 89 199 28 43 81 130 119 193l69 115 48 9c34 6 54 5 67-3 16-10 24-7 52 16 18 15 40 39 49 53s31 42 48 62c18 21 29 41 26 45-4 3-44 1-88-6-45-7-84-10-87-7s1 18 9 34c23 47 172 296 186 313 22 27-4 36-72 27zm-3597-400c5-59-43-143-178-313-66-82-220-245-232-245-27 0 286 526 344 580 35 32 62 23 66-22zm4210-16c7-74-93-203-213-273-73-43-206-99-234-99-29 0-27 12 21 93 87 147 301 321 388 315 32-3 35-6 38-36zm-1148-186c0-2-92-156-163-271-22-36-116-180-134-205-48-67-155-140-204-140-47 0-64 21-63 79 0 44 18 84 76 176 10 17 61 98 112 180l93 150 99 16c95 16 184 23 184 15zm-1036-172c23-22 20-42-13-100-48-83-118-144-243-212-119-64-168-82-168-63 0 17 37 88 75 142 83 122 139 173 240 224 58 29 87 31 109 9zm-1818-309c23-15 37-64 28-90-4-10-19-15-44-15-48 0-77-11-113-43-57-51-41-167 28-199 14-6 25-17 25-25 0-24-140-154-194-179-58-27-141-32-172-10-29 21-25 95 10 186 38 97 77 157 166 253 111 119 208 164 266 122zm-1478-231c81-57-67-245-280-355-32-16-62-29-67-29-33 0 114 263 194 346 20 21 87 50 120 53 6 1 21-6 33-15z"/>
  </g>
  <metadata>
    <rdf:RDF>
      <cc:Work>
        <dc:format>image/svg+xml</dc:format>
        <dc:type rdf:resource="http://purl.org/dc/dcmitype/StillImage"/>
        <cc:license rdf:resource="http://creativecommons.org/licenses/publicdomain/"/>
        <dc:publisher>
          <cc:Agent rdf:about="http://openclipart.org/">
            <dc:title>Openclipart</dc:title>
          </cc:Agent>
        </dc:publisher>
        <dc:title>Baseball cap</dc:title>
        <dc:date>2006-12-23T05:28:00</dc:date>
        <dc:description>Baseball cap, hand traced from the uploaded bitmap. I replaced the nike logo with something from the openclipart library</dc:description>
        <dc:source>http://openclipart.org/detail/2226/baseball-cap-by-zeimusu</dc:source>
        <dc:creator>
          <cc:Agent>
            <dc:title>zeimusu</dc:title>
          </cc:Agent>
        </dc:creator>
        <dc:subject>
          <rdf:Bag>
            <rdf:li>baseball</rdf:li>
            <rdf:li>cap</rdf:li>
            <rdf:li>clip art</rdf:li>
            <rdf:li>clipart</rdf:li>
            <rdf:li>clothing</rdf:li>
            <rdf:li>hat</rdf:li>
            <rdf:li>image</rdf:li>
            <rdf:li>media</rdf:li>
            <rdf:li>png</rdf:li>
            <rdf:li>public domain</rdf:li>
            <rdf:li>remix</rdf:li>
            <rdf:li>svg</rdf:li>
          </rdf:Bag>
        </dc:subject>
      </cc:Work>
      <cc:License rdf:about="http://creativecommons.org/licenses/publicdomain/">
        <cc:permits rdf:resource="http://creativecommons.org/ns#Reproduction"/>
        <cc:permits rdf:resource="http://creativecommons.org/ns#Distribution"/>
        <cc:permits rdf:resource="http://creativecommons.org/ns#DerivativeWorks"/>
      </cc:License>
    </rdf:RDF>
  </metadata>
</svg>
